<svg preserveAspectRatio="none" width="100%" height="100%" overflow="visible" style="display: block;" viewBox="0 0 9.46924 13.2936" fill="none" xmlns="http://www.w3.org/2000/svg">
<g id="Container">
<path id="Icon" d="M4.79346 0.648926C2.22314 0.648926 0.117676 0.922364 0.117676 2.97314V8.52393C0.117676 9.64502 1.04736 10.5474 2.16846 10.5474L1.48486 11.231C1.3208 11.395 1.45752 11.7231 1.70361 11.7231H7.8833C8.15674 11.7231 8.26611 11.395 8.10205 11.231L7.41846 10.5474C8.53955 10.5474 9.46924 9.64502 9.46924 8.52393V2.97314C9.46924 0.922364 7.36377 0.648926 4.79346 0.648926V0.648926M2.16846 9.39893C1.67627 9.39893 1.29346 8.98877 1.29346 8.52393C1.29346 8.03174 1.67627 7.64893 2.16846 7.64893C2.66064 7.64893 3.04346 8.03174 3.04346 8.52393C3.04346 8.98877 2.66064 9.39893 2.16846 9.39893V9.39893M4.21924 5.89893H1.29346V2.97314H4.21924V5.89893V5.89893M7.41846 9.39893C6.92627 9.39893 6.54346 8.98877 6.54346 8.52393C6.54346 8.03174 6.92627 7.64893 7.41846 7.64893C7.91064 7.64893 8.29346 8.03174 8.29346 8.52393C8.29346 8.98877 7.91064 9.39893 7.41846 9.39893V9.39893M8.29346 5.89893H5.36768V2.97314H8.29346V5.89893V5.89893" fill="var(--fill-0, white)" style="fill:white;fill-opacity:1;"/>
<rect id="Horizontal Divider" width="14.2858" height="1.70069" transform="matrix(0.55545 -0.83155 0.55545 0.83155 0 11.8794)" fill="var(--fill-0, #FF5A5F)" style="fill:#FF5A5F;fill:color(display-p3 1.0000 0.3529 0.3725);fill-opacity:1;"/>
</g>
</svg>
