<svg preserveAspectRatio="none" width="100%" height="100%" overflow="visible" style="display: block;" viewBox="0 0 16.0312 21.7789" fill="none" xmlns="http://www.w3.org/2000/svg">
<g id="Container">
<path id="Icon" d="M8.01562 1.89397C4.03125 1.89397 0 2.36272 0 5.87835V15.394C0 17.3158 1.59375 18.8627 3.51562 18.8627L2.34375 20.0346C2.0625 20.3158 2.29688 20.8783 2.71875 20.8783H3.79688C3.9375 20.8783 4.07812 20.8315 4.17188 20.7377L6 18.8627H10.0312L11.8594 20.7377C11.9531 20.8315 12.0938 20.8783 12.2344 20.8783H13.3125C13.7344 20.8783 13.9688 20.3158 13.6406 20.0346L12.5156 18.8627C14.4375 18.8627 16.0312 17.3158 16.0312 15.394V5.87835C16.0312 2.36272 12 1.89397 8.01562 1.89397V1.89397M3.51562 16.894C2.67188 16.894 2.01562 16.1908 2.01562 15.394C2.01562 14.5502 2.67188 13.894 3.51562 13.894C4.35938 13.894 5.01562 14.5502 5.01562 15.394C5.01562 16.1908 4.35938 16.894 3.51562 16.894V16.894M7.03125 9.86272H2.01562V5.87835H7.03125V9.86272V9.86272M12.5156 16.894C11.6719 16.894 11.0156 16.1908 11.0156 15.394C11.0156 14.5502 11.6719 13.894 12.5156 13.894C13.3594 13.894 14.0156 14.5502 14.0156 15.394C14.0156 16.1908 13.3594 16.894 12.5156 16.894V16.894M14.0156 9.86272H9V5.87835H14.0156V9.86272V9.86272" fill="var(--fill-0, white)" style="fill:white;fill-opacity:1;"/>
<rect id="Horizontal Divider" width="24.49" height="1.70069" transform="matrix(0.55545 -0.83155 0.55545 0.83155 0.741211 20.3647)" fill="var(--fill-0, #FF5A5F)" style="fill:#FF5A5F;fill:color(display-p3 1.0000 0.3529 0.3725);fill-opacity:1;"/>
</g>
</svg>
