<svg preserveAspectRatio="none" width="100%" height="100%" overflow="visible" style="display: block;" viewBox="0 0 9.35156 13.2936" fill="none" xmlns="http://www.w3.org/2000/svg">
<g id="Container">
<path id="Icon" d="M4.67578 0.648926C2.35156 0.648926 0 0.922364 0 2.97314V8.52393C0 9.64502 0.929688 10.5474 2.05078 10.5474L1.36719 11.231C1.20312 11.395 1.33984 11.7231 1.58594 11.7231H2.21484C2.29688 11.7231 2.37891 11.6958 2.43359 11.6411L3.5 10.5474H5.85156L6.91797 11.6411C6.97266 11.6958 7.05469 11.7231 7.13672 11.7231H7.76562C8.01172 11.7231 8.14844 11.395 7.95703 11.231L7.30078 10.5474C8.42188 10.5474 9.35156 9.64502 9.35156 8.52393V2.97314C9.35156 0.922364 7 0.648926 4.67578 0.648926V0.648926M2.05078 9.39893C1.55859 9.39893 1.17578 8.98877 1.17578 8.52393C1.17578 8.03174 1.55859 7.64893 2.05078 7.64893C2.54297 7.64893 2.92578 8.03174 2.92578 8.52393C2.92578 8.98877 2.54297 9.39893 2.05078 9.39893V9.39893M4.10156 5.29736H1.17578V2.97314H4.10156V5.29736V5.29736M7.30078 9.39893C6.80859 9.39893 6.42578 8.98877 6.42578 8.52393C6.42578 8.03174 6.80859 7.64893 7.30078 7.64893C7.79297 7.64893 8.17578 8.03174 8.17578 8.52393C8.17578 8.98877 7.79297 9.39893 7.30078 9.39893V9.39893M8.17578 5.29736H5.25V2.97314H8.17578V5.29736V5.29736" fill="var(--fill-0, white)" style="fill:white;fill-opacity:1;"/>
<rect id="Horizontal Divider" width="14.2858" height="1.70069" transform="matrix(0.55545 -0.83155 0.55545 0.83155 0.233887 11.8794)" fill="var(--fill-0, #FF5A5F)" style="fill:#FF5A5F;fill:color(display-p3 1.0000 0.3529 0.3725);fill-opacity:1;"/>
</g>
</svg>
