<svg preserveAspectRatio="none" width="100%" height="100%" overflow="visible" style="display: block;" viewBox="0 0 29 20.5625" fill="none" xmlns="http://www.w3.org/2000/svg">
<g id="Frame 32">
<path id="Vector" d="M20.6316 0.000108506C20.6036 -0.000497914 20.5757 0.00143849 20.5481 0.00589398L19.1516 2.47437C19.167 2.51517 19.2088 2.59627 19.2879 2.69482C19.4595 2.90835 19.7782 3.18221 20.1721 3.41424C20.5659 3.64626 20.9577 3.79109 21.2248 3.83593C21.3479 3.85659 21.4376 3.85297 21.48 3.8461L21.8338 3.22085C21.8177 3.21295 21.8017 3.2051 21.7859 3.19585C21.4438 2.99425 21.3265 2.54761 21.5241 2.19844C21.7216 1.84927 22.1591 1.72975 22.5013 1.9314C22.517 1.94059 22.5317 1.95092 22.5465 1.9612L22.8765 1.37784C22.8612 1.33703 22.8193 1.25583 22.7401 1.15728C22.5686 0.943801 22.2498 0.669938 21.8559 0.437915C21.4621 0.205789 21.0703 0.0610067 20.8034 0.0161723C20.7466 0.00650674 20.6892 0.00110311 20.6316 0.000108506ZM17.5592 2.50712C17.5074 2.50638 17.4556 2.5069 17.4039 2.50866C16.5875 2.53552 16.0013 2.83082 15.6727 3.41171C15.6587 3.4364 15.6358 3.50897 15.7065 3.70235C15.7772 3.89574 15.9413 4.16774 16.1903 4.46268C16.6882 5.05255 17.5147 5.73886 18.5213 6.33188C19.528 6.92495 20.5237 7.31224 21.2732 7.45739C21.648 7.53006 21.961 7.539 22.1604 7.50475C22.3598 7.47051 22.4099 7.4141 22.4238 7.38946C22.7254 6.85662 22.6884 6.18002 22.306 5.43276C22.1878 5.20167 22.0359 4.96825 21.8539 4.73907C21.8005 4.76077 21.7468 4.77729 21.6947 4.78866C21.4882 4.83411 21.2845 4.8243 21.0711 4.78845C20.6445 4.71676 20.1745 4.53034 19.6992 4.25033C19.2238 3.97027 18.8306 3.64807 18.5565 3.30685C18.4194 3.13624 18.3091 2.96114 18.2444 2.75593C18.2256 2.69541 18.2124 2.63322 18.205 2.57018C17.9811 2.53108 17.7645 2.5098 17.5592 2.50712ZM22.4806 2.75598L24.8548 8.94684L25.4259 5.46191L28.2818 6.0331L25.9971 3.19585L28.853 1.15728L25.1803 0.437915L22.4806 2.75598ZM15.0505 4.51134L9.36677 14.5574C9.34096 14.6035 9.32086 14.6874 9.38839 14.8841C9.45621 15.0817 9.61677 15.3557 9.86342 15.6523C10.3566 16.2454 11.1823 16.9315 12.1889 17.5246C13.1955 18.1176 14.1907 18.5043 14.9406 18.6436C15.3157 18.7133 15.6285 18.7181 15.8299 18.6793C16.0314 18.6405 16.0919 18.5811 16.1179 18.5351L21.8019 8.48899C21.5794 8.48269 21.3448 8.45387 21.0968 8.40583C20.2001 8.23228 19.1323 7.80651 18.0484 7.16793C16.9644 6.52935 16.0693 5.79852 15.4736 5.09284C15.3088 4.8977 15.167 4.70483 15.0505 4.51134ZM16.7451 7.85718C16.9986 7.86183 17.2341 7.92329 17.443 8.04633C18.1855 8.48383 18.4356 9.60944 18.185 10.9634C18.0602 10.1051 17.6318 9.35815 16.9333 8.94684C16.2348 8.53569 15.3868 8.53031 14.5961 8.84922C15.3319 8.2034 16.0971 7.84509 16.7451 7.85718ZM8.72481 15.6919L8.31482 16.4166C8.28885 16.4624 8.26876 16.5456 8.33658 16.7431C8.40441 16.9406 8.56486 17.2147 8.81146 17.5112C9.30446 18.1041 10.1297 18.79 11.1358 19.3829C12.1424 19.9759 13.1388 20.3632 13.8888 20.5025C14.2638 20.5723 14.5767 20.577 14.7781 20.5382C14.9796 20.4994 15.0402 20.44 15.0661 20.3942L15.4761 19.6695C15.253 19.6658 15.0183 19.6392 14.7711 19.5933C13.8681 19.4256 12.7997 18.9991 11.7158 18.3605C10.6319 17.7219 9.73587 16.991 9.14204 16.2768C8.97941 16.0813 8.83951 15.8873 8.72481 15.6919Z" fill="var(--fill-0, white)" style="fill:white;fill-opacity:1;"/>
<g id="Group 31">
<path id="Subtract" d="M8.24805 0.21875C10.7526 0.218813 12.9915 1.35581 14.4773 3.14159C14.6475 3.34604 14.6548 3.63728 14.5099 3.86031C14.2577 4.24867 13.6834 4.24716 13.381 3.89636C12.1386 2.45465 10.3005 1.54108 8.24805 1.54102C4.50487 1.54102 1.46973 4.57616 1.46973 8.31934C1.46982 11.5776 3.76967 14.2968 6.83435 14.9467C7.28185 15.0416 7.55974 15.5325 7.3519 15.94C7.22887 16.1812 6.96604 16.3208 6.7002 16.2693C2.96706 15.547 0.14756 12.2634 0.147461 8.31934C0.147461 3.84576 3.77447 0.21875 8.24805 0.21875Z" fill="var(--fill-0, white)" style="fill:white;fill-opacity:1;"/>
<path id="Vector (Stroke)" d="M10.7444 9.17091C11.1032 9.23839 11.3396 9.58401 11.2722 9.94287C11.2047 10.3018 10.8591 10.5382 10.5002 10.4707C9.80417 10.3398 9.08532 10.406 8.42484 10.6617C7.76439 10.9174 7.18828 11.3523 6.7618 11.9177C6.54188 12.2092 6.12753 12.2672 5.83598 12.0473C5.54443 11.8274 5.48641 11.4131 5.70633 11.1215C6.28116 10.3594 7.0574 9.77272 7.9476 9.42811C8.83769 9.08359 9.80635 8.99457 10.7444 9.17091Z" fill="var(--fill-0, white)" style="fill:white;fill-opacity:1;"/>
<path id="Ellipse 16" d="M5.98377 6.83563C5.98377 7.38344 5.53969 7.82752 4.99188 7.82752C4.44408 7.82752 4 7.38344 4 6.83563C4 6.28783 4.44408 5.84375 4.99188 5.84375C5.53969 5.84375 5.98377 6.28783 5.98377 6.83563Z" fill="var(--fill-0, white)" style="fill:white;fill-opacity:1;"/>
<path id="Ellipse 17" d="M10.8929 6.0036C10.8929 6.5514 10.4489 6.99549 9.90106 6.99549C9.35326 6.99549 8.90918 6.5514 8.90918 6.0036C8.90918 5.4558 9.35326 5.01172 9.90106 5.01172C10.4489 5.01172 10.8929 5.4558 10.8929 6.0036Z" fill="var(--fill-0, white)" style="fill:white;fill-opacity:1;"/>
</g>
</g>
</svg>
