<svg preserveAspectRatio="none" width="100%" height="100%" overflow="visible" style="display: block;" viewBox="0 0 20 20" fill="none" xmlns="http://www.w3.org/2000/svg">
<g id="Group">
<path id="Vector" d="M15.2391 7.55546L18.3827 10.6989C18.8928 11.2022 19.2983 11.8015 19.5759 12.4621C19.8534 13.1228 19.9976 13.8318 20 14.5484C20.0024 15.265 19.863 15.975 19.5899 16.6375C19.3167 17.3 18.9152 17.9019 18.4085 18.4086C17.9018 18.9153 17.2998 19.3168 16.6373 19.5899C15.9748 19.863 15.2647 20.0024 14.5481 20C13.8315 19.9976 13.1224 19.8534 12.4617 19.5759C11.8011 19.2983 11.2018 18.8929 10.6985 18.3828L9.65126 17.3356C9.50966 17.199 9.39668 17.0355 9.31894 16.8548C9.24119 16.674 9.20022 16.4796 9.19841 16.2828C9.19661 16.0861 9.23401 15.8909 9.30844 15.7088C9.38287 15.5266 9.49282 15.3611 9.6319 15.2219C9.77097 15.0827 9.93638 14.9726 10.1185 14.898C10.3005 14.8234 10.4957 14.7858 10.6924 14.7875C10.8892 14.7891 11.0837 14.8299 11.2645 14.9074C11.4453 14.985 11.6089 15.0978 11.7457 15.2393L12.7949 16.2874C13.2588 16.7472 13.886 17.0045 14.5392 17.0029C15.1924 17.0014 15.8183 16.7412 16.2801 16.2793C16.7419 15.8174 17.0019 15.1914 17.0033 14.5383C17.0046 13.8851 16.7472 13.258 16.2873 12.7943L13.1436 9.65078C12.8038 9.31087 12.3723 9.07747 11.9018 8.97921C11.4313 8.88094 10.9424 8.92207 10.495 9.09756C10.3356 9.16079 10.1861 9.22533 10.0464 9.29119L9.58803 9.50556C8.9755 9.78217 8.50426 9.90072 7.90458 9.30205C7.04309 8.44061 7.26637 7.64536 8.31655 6.92123C9.36269 6.20141 10.6279 5.87072 11.8925 5.98658C13.1571 6.10244 14.3411 6.65753 15.2391 7.55546ZM9.30153 1.61823L10.3487 2.66539C10.6188 2.94474 10.7684 3.31899 10.7652 3.70752C10.762 4.09606 10.6063 4.4678 10.3317 4.74268C10.057 5.01755 9.68544 5.17357 9.29688 5.17713C8.90833 5.18069 8.53393 5.0315 8.25431 4.7617L7.2061 3.71453C6.97833 3.47859 6.70585 3.29036 6.40455 3.16084C6.10326 3.03132 5.77918 2.9631 5.45124 2.96015C5.1233 2.95721 4.79805 3.01961 4.49448 3.1437C4.19091 3.2678 3.91509 3.4511 3.68313 3.68293C3.45116 3.91475 3.26769 4.19045 3.14342 4.49394C3.01914 4.79742 2.95656 5.12262 2.95932 5.45055C2.96207 5.77847 3.03012 6.10257 3.15947 6.40393C3.28883 6.70528 3.47691 6.97785 3.71274 7.20575L6.85637 10.3492C7.19615 10.6891 7.62773 10.9225 8.0982 11.0208C8.56868 11.1191 9.0576 11.0779 9.50504 10.9024C9.66443 10.8392 9.81394 10.7747 9.95357 10.7088L10.412 10.4944C11.0245 10.2178 11.4967 10.0993 12.0954 10.6979C12.9569 11.5594 12.7336 12.3546 11.6835 13.0788C10.6373 13.7986 9.37209 14.1293 8.1075 14.0134C6.84292 13.8976 5.65886 13.3425 4.76095 12.4445L1.61732 9.30107C1.1072 8.79777 0.70169 8.19854 0.424127 7.53788C0.146563 6.87723 0.00243127 6.1682 3.04946e-05 5.45161C-0.00237028 4.73503 0.137007 4.02505 0.410138 3.36254C0.683269 2.70004 1.08476 2.09811 1.59149 1.59141C2.09822 1.0847 2.70018 0.683235 3.36271 0.410118C4.02524 0.137 4.73526 -0.00237016 5.45188 3.04931e-05C6.1685 0.00243115 6.87757 0.146556 7.53826 0.424106C8.19894 0.701656 8.7982 1.10814 9.30153 1.61823Z" fill="var(--fill-0, white)" style="fill:white;fill-opacity:1;"/>
</g>
</svg>
