<svg preserveAspectRatio="none" width="100%" height="100%" overflow="visible" style="display: block;" viewBox="0 0 15 19" fill="none" xmlns="http://www.w3.org/2000/svg">
<path id="Vector" d="M12.6136 6.10693H8.18182V12.2566C8.18182 12.4366 8.10998 12.6092 7.98212 12.7364C7.85425 12.8637 7.68083 12.9352 7.5 12.9352C7.31917 12.9352 7.14575 12.8637 7.01788 12.7364C6.89002 12.6092 6.81818 12.4366 6.81818 12.2566V6.10693H2.38636C1.75367 6.1076 1.14708 6.35805 0.699697 6.80331C0.252314 7.24857 0.000676801 7.85228 0 8.48197V16.625C0.000676801 17.2547 0.252314 17.8584 0.699697 18.3036C1.14708 18.7489 1.75367 18.9993 2.38636 19H12.6136C13.2463 18.9993 13.8529 18.7489 14.3003 18.3036C14.7477 17.8584 14.9993 17.2547 15 16.625V8.48197C14.9993 7.85228 14.7477 7.24857 14.3003 6.80331C13.8529 6.35805 13.2463 6.1076 12.6136 6.10693ZM8.18182 2.31662L10.4271 4.55085C10.556 4.67274 10.7277 4.73969 10.9055 4.73742C11.0833 4.73516 11.2531 4.66386 11.3789 4.53873C11.5046 4.4136 11.5762 4.24453 11.5785 4.06758C11.5808 3.89064 11.5135 3.7198 11.3911 3.59151L7.98196 0.198595C7.85411 0.0714322 7.68075 0 7.5 0C7.31925 0 7.14589 0.0714322 7.01804 0.198595L3.60895 3.59151C3.48648 3.7198 3.41921 3.89064 3.42149 4.06758C3.42377 4.24453 3.49541 4.4136 3.62113 4.53873C3.74686 4.66386 3.91673 4.73516 4.09452 4.73742C4.27232 4.73969 4.44396 4.67274 4.57287 4.55085L6.81818 2.31662V6.10693H8.18182V2.31662Z" fill="var(--fill-0, black)" style="fill:black;fill-opacity:1;"/>
</svg>
