<svg preserveAspectRatio="none" width="100%" height="100%" overflow="visible" style="display: block;" viewBox="0 0 13.7197 13.7197" fill="none" xmlns="http://www.w3.org/2000/svg">
<path id="Vector" d="M6.85986 0C7.05479 0 7.24174 0.0774358 7.37958 0.215272C7.51741 0.353109 7.59485 0.540055 7.59485 0.734985V2.20496C7.59485 2.39989 7.51741 2.58683 7.37958 2.72467C7.24174 2.86251 7.05479 2.93994 6.85986 2.93994C6.66493 2.93994 6.47799 2.86251 6.34015 2.72467C6.20231 2.58683 6.12488 2.39989 6.12488 2.20496V0.734985C6.12488 0.540055 6.20231 0.353109 6.34015 0.215272C6.47799 0.0774358 6.66493 0 6.85986 0ZM9.30981 6.85986C9.30981 7.50963 9.0517 8.13279 8.59224 8.59224C8.13279 9.0517 7.50963 9.30981 6.85986 9.30981C6.2101 9.30981 5.58694 9.0517 5.12749 8.59224C4.66803 8.13279 4.40991 7.50963 4.40991 6.85986C4.40991 6.2101 4.66803 5.58694 5.12749 5.12749C5.58694 4.66803 6.2101 4.40991 6.85986 4.40991C7.50963 4.40991 8.13279 4.66803 8.59224 5.12749C9.0517 5.58694 9.30981 6.2101 9.30981 6.85986ZM11.7108 3.04774C11.783 2.98045 11.8409 2.89931 11.8811 2.80915C11.9212 2.71899 11.9428 2.62167 11.9446 2.52298C11.9463 2.42429 11.9282 2.32627 11.8912 2.23475C11.8542 2.14323 11.7992 2.0601 11.7294 1.9903C11.6596 1.92051 11.5765 1.86549 11.485 1.82852C11.3935 1.79156 11.2954 1.7734 11.1967 1.77514C11.0981 1.77689 11.0007 1.79849 10.9106 1.83866C10.8204 1.87883 10.7393 1.93675 10.672 2.00896L9.63125 3.04774C9.56291 3.11601 9.50869 3.19707 9.47169 3.2863C9.43468 3.37553 9.41561 3.47117 9.41556 3.56776C9.41547 3.76285 9.49288 3.94998 9.63076 4.08799C9.76864 4.226 9.9557 4.30358 10.1508 4.30368C10.3459 4.30377 10.533 4.22636 10.671 4.08848L11.7108 3.04774ZM13.7197 6.85986C13.7197 7.05479 13.6423 7.24174 13.5045 7.37958C13.3666 7.51741 13.1797 7.59485 12.9847 7.59485H11.5148C11.3198 7.59485 11.1329 7.51741 10.9951 7.37958C10.8572 7.24174 10.7798 7.05479 10.7798 6.85986C10.7798 6.66493 10.8572 6.47799 10.9951 6.34015C11.1329 6.20231 11.3198 6.12488 11.5148 6.12488H12.9847C13.1797 6.12488 13.3666 6.20231 13.5045 6.34015C13.6423 6.47799 13.7197 6.66493 13.7197 6.85986ZM10.672 11.7108C10.8113 11.8406 10.9956 11.9113 11.186 11.9079C11.3764 11.9046 11.5581 11.8274 11.6928 11.6928C11.8274 11.5581 11.9046 11.3764 11.9079 11.186C11.9113 10.9956 11.8406 10.8113 11.7108 10.672L10.672 9.63125C10.6037 9.56291 10.5227 9.50869 10.4334 9.47169C10.3442 9.43468 10.2486 9.41561 10.152 9.41556C10.0554 9.41552 9.95971 9.4345 9.87045 9.47142C9.78119 9.50834 9.70007 9.56249 9.63174 9.63076C9.5634 9.69903 9.50918 9.78009 9.47217 9.86932C9.43517 9.95854 9.4161 10.0542 9.41605 10.1508C9.41596 10.3459 9.49337 10.533 9.63125 10.671L10.672 11.7108ZM6.85986 10.7798C7.05479 10.7798 7.24174 10.8572 7.37958 10.9951C7.51741 11.1329 7.59485 11.3198 7.59485 11.5148V12.9847C7.59485 13.1797 7.51741 13.3666 7.37958 13.5045C7.24174 13.6423 7.05479 13.7197 6.85986 13.7197C6.66493 13.7197 6.47799 13.6423 6.34015 13.5045C6.20231 13.3666 6.12488 13.1797 6.12488 12.9847V11.5148C6.12488 11.3198 6.20231 11.1329 6.34015 10.9951C6.47799 10.8572 6.66493 10.7798 6.85986 10.7798ZM4.08848 10.672C4.15681 10.6037 4.21103 10.5227 4.24804 10.4334C4.28505 10.3442 4.30412 10.2486 4.30417 10.152C4.30421 10.0554 4.28523 9.95971 4.24831 9.87045C4.21138 9.78119 4.15724 9.70007 4.08897 9.63174C4.0207 9.5634 3.93963 9.50918 3.85041 9.47217C3.76118 9.43517 3.66554 9.4161 3.56895 9.41605C3.47235 9.416 3.37669 9.43499 3.28743 9.47191C3.19817 9.50883 3.11706 9.56298 3.04872 9.63125L2.00896 10.672C1.93675 10.7393 1.87883 10.8204 1.83866 10.9106C1.79849 11.0007 1.77689 11.0981 1.77514 11.1967C1.7734 11.2954 1.79156 11.3935 1.82852 11.485C1.86549 11.5765 1.92051 11.6596 1.9903 11.7294C2.0601 11.7992 2.14323 11.8542 2.23475 11.8912C2.32627 11.9282 2.42429 11.9463 2.52298 11.9446C2.62167 11.9428 2.71899 11.9212 2.80915 11.8811C2.89931 11.8409 2.98045 11.783 3.04774 11.7108L4.08848 10.672ZM2.93994 6.85986C2.93994 7.05479 2.86251 7.24174 2.72467 7.37958C2.58683 7.51741 2.39989 7.59485 2.20496 7.59485H0.734985C0.540055 7.59485 0.353109 7.51741 0.215272 7.37958C0.0774358 7.24174 0 7.05479 0 6.85986C0 6.66493 0.0774358 6.47799 0.215272 6.34015C0.353109 6.20231 0.540055 6.12488 0.734985 6.12488H2.20496C2.39989 6.12488 2.58683 6.20231 2.72467 6.34015C2.86251 6.47799 2.93994 6.66493 2.93994 6.85986ZM3.04774 4.08848C3.18575 4.22662 3.37298 4.30428 3.56825 4.30437C3.76352 4.30446 3.95083 4.22698 4.08897 4.08897C4.22711 3.95096 4.30477 3.76372 4.30486 3.56846C4.30495 3.37319 4.22747 3.18588 4.08946 3.04774L3.04774 2.00896C2.98045 1.93675 2.89931 1.87883 2.80915 1.83866C2.71899 1.79849 2.62167 1.77689 2.52298 1.77514C2.42429 1.7734 2.32627 1.79156 2.23475 1.82852C2.14323 1.86549 2.0601 1.92051 1.9903 1.9903C1.92051 2.0601 1.86549 2.14323 1.82852 2.23475C1.79156 2.32627 1.7734 2.42429 1.77514 2.52298C1.77689 2.62167 1.79849 2.71899 1.83866 2.80915C1.87883 2.89931 1.93675 2.98045 2.00896 3.04774L3.04774 4.08848Z" fill="var(--fill-0, #FDFDFD)" style="fill:#FDFDFD;fill:color(display-p3 0.9922 0.9922 0.9922);fill-opacity:1;"/>
</svg>
