<svg preserveAspectRatio="none" width="100%" height="100%" overflow="visible" style="display: block;" viewBox="0 0 12.0234 16.6806" fill="none" xmlns="http://www.w3.org/2000/svg">
<g id="Container">
<path id="Icon" d="M6.01172 1.33675C3.02344 1.33675 0 1.68831 0 4.32503V11.4617C0 12.9032 1.19531 14.0633 2.63672 14.0633L1.75781 14.9422C1.54688 15.1532 1.72266 15.575 2.03906 15.575H2.84766C2.95312 15.575 3.05859 15.5399 3.12891 15.4696L4.5 14.0633H7.52344L8.89453 15.4696C8.96484 15.5399 9.07031 15.575 9.17578 15.575H9.98438C10.3008 15.575 10.4766 15.1532 10.2305 14.9422L9.38672 14.0633C10.8281 14.0633 12.0234 12.9032 12.0234 11.4617V4.32503C12.0234 1.68831 9 1.33675 6.01172 1.33675V1.33675M2.63672 12.5867C2.00391 12.5867 1.51172 12.0594 1.51172 11.4617C1.51172 10.8289 2.00391 10.3367 2.63672 10.3367C3.26953 10.3367 3.76172 10.8289 3.76172 11.4617C3.76172 12.0594 3.26953 12.5867 2.63672 12.5867V12.5867M5.27344 7.31331H1.51172V4.32503H5.27344V7.31331V7.31331M9.38672 12.5867C8.75391 12.5867 8.26172 12.0594 8.26172 11.4617C8.26172 10.8289 8.75391 10.3367 9.38672 10.3367C10.0195 10.3367 10.5117 10.8289 10.5117 11.4617C10.5117 12.0594 10.0195 12.5867 9.38672 12.5867V12.5867M10.5117 7.31331H6.75V4.32503H10.5117V7.31331V7.31331" fill="var(--fill-0, black)" style="fill:black;fill-opacity:1;"/>
<rect id="Horizontal Divider" width="18.359" height="1.70069" transform="matrix(0.55545 -0.83155 0.55545 0.83155 0.44043 15.2664)" fill="var(--fill-0, #FF5A5F)" style="fill:#FF5A5F;fill:color(display-p3 1.0000 0.3529 0.3725);fill-opacity:1;"/>
</g>
</svg>
