<svg preserveAspectRatio="none" width="100%" height="100%" overflow="visible" style="display: block;" viewBox="0 0 16.6667 21.7789" fill="none" xmlns="http://www.w3.org/2000/svg">
<g id="Container">
<path id="Icon" d="M4.16667 19.5606V17.4773L6.66667 15.7273V12.7273L0 15.394V12.894L6.66667 8.22731V4.56064C6.66667 4.10231 6.82986 3.70995 7.15625 3.38356C7.48264 3.05717 7.875 2.89397 8.33333 2.89397C8.79167 2.89397 9.18403 3.05717 9.51042 3.38356C9.83681 3.70995 10 4.10231 10 4.56064V8.22731L16.6667 12.894V15.394L10 12.7273V15.7273L12.5 17.4773V19.5606L8.33333 18.3106L4.16667 19.5606V19.5606" fill="var(--fill-0, white)" style="fill:white;fill-opacity:1;"/>
<rect id="Horizontal Divider" width="24.7935" height="1.72177" transform="matrix(0.570396 -0.82137 0.570396 0.82137 0.77059 20.3647)" fill="var(--fill-0, #FF5A5F)" style="fill:#FF5A5F;fill:color(display-p3 1.0000 0.3529 0.3725);fill-opacity:1;"/>
</g>
</svg>
