<svg preserveAspectRatio="none" width="100%" height="100%" overflow="visible" style="display: block;" viewBox="0 0 19.3 19.3" fill="none" xmlns="http://www.w3.org/2000/svg">
<g id="Container">
<path id="Icon" d="M13.65 11.3L8 5.65L13.65 0L19.3 5.65L13.65 11.3V11.3M0 9.3V1.3H8V9.3H0V9.3M10 19.3V11.3H18V19.3H10V19.3M0 19.3V11.3H8V19.3H0V19.3M2 7.3H6V3.3H2V7.3V7.3M13.675 8.5L16.5 5.675L13.675 2.85L10.85 5.675L13.675 8.5V8.5M12 17.3H16V13.3H12V17.3V17.3M2 17.3H6V13.3H2V17.3V17.3M6 7.3V7.3V7.3V7.3V7.3V7.3M10.85 5.675V5.675V5.675V5.675V5.675V5.675M6 13.3V13.3V13.3V13.3V13.3V13.3M12 13.3V13.3V13.3V13.3V13.3V13.3" fill="var(--fill-0, white)" style="fill:white;fill-opacity:1;"/>
</g>
</svg>
