<svg preserveAspectRatio="none" width="100%" height="100%" overflow="visible" style="display: block;" viewBox="0 0 13.3516 13.3516" fill="none" xmlns="http://www.w3.org/2000/svg">
<g id="Container">
<path id="Vector" d="M6.67578 0C10.3628 0 13.3516 2.98875 13.3516 6.67578C13.3516 10.3628 10.3628 13.3516 6.67578 13.3516C2.98875 13.3516 0 10.3628 0 6.67578C0 2.98875 2.98875 0 6.67578 0ZM6.67578 2.67031C6.49873 2.67031 6.32893 2.74065 6.20373 2.86584C6.07854 2.99104 6.0082 3.16084 6.0082 3.33789V6.67578C6.00824 6.85282 6.0786 7.02259 6.2038 7.14776L8.20654 9.15049C8.33244 9.2721 8.50108 9.33939 8.67611 9.33786C8.85115 9.33634 9.01859 9.26614 9.14236 9.14236C9.26614 9.01859 9.33634 8.85115 9.33786 8.67611C9.33939 8.50108 9.2721 8.33244 9.15049 8.20654L7.34336 6.3994V3.33789C7.34336 3.16084 7.27303 2.99104 7.14783 2.86584C7.02263 2.74065 6.85283 2.67031 6.67578 2.67031Z" fill="var(--fill-0, white)" style="fill:white;fill-opacity:1;"/>
</g>
</svg>
