<svg preserveAspectRatio="none" width="100%" height="100%" overflow="visible" style="display: block;" viewBox="0 0 11.0742 13.2936" fill="none" xmlns="http://www.w3.org/2000/svg">
<g id="Container">
<path id="Icon" d="M11.0742 7.73877C11.0742 7.52002 10.9648 7.32861 10.8008 7.21924L6.39844 4.48486V1.28564C6.39844 0.793457 6.01562 0.410645 5.52344 0.410645C5.05859 0.410645 4.64844 0.793457 4.64844 1.28564V4.48486L0.273438 7.21924C0.109375 7.32861 0 7.52002 0 7.73877C0 8.14893 0.382812 8.44971 0.792969 8.31299L4.64844 7.10986V10.3091L3.60938 11.1021C3.52734 11.1567 3.5 11.2388 3.5 11.3481V11.6763C3.5 11.8677 3.66406 12.0044 3.85547 11.9497L5.52344 11.4849L7.19141 11.9497C7.38281 12.0044 7.57422 11.8677 7.57422 11.6763V11.3481C7.57422 11.2388 7.54688 11.1567 7.46484 11.1021L6.39844 10.3091V7.10986L10.2812 8.31299C10.6641 8.44971 11.0742 8.14893 11.0742 7.73877V7.73877" fill="var(--fill-0, white)" style="fill:white;fill-opacity:1;"/>
<rect id="Horizontal Divider" width="14.2858" height="1.70069" transform="matrix(0.55545 -0.83155 0.55545 0.83155 0.179199 11.8794)" fill="var(--fill-0, #FF5A5F)" style="fill:#FF5A5F;fill:color(display-p3 1.0000 0.3529 0.3725);fill-opacity:1;"/>
</g>
</svg>
