<svg preserveAspectRatio="none" width="100%" height="100%" overflow="visible" style="display: block;" viewBox="0 0 79.5744 99.7666" fill="none" xmlns="http://www.w3.org/2000/svg">
<g id="Container" opacity="0.2">
<path id="Subtract" d="M45.9525 16.8269C46.1119 16.2322 46.7232 15.8789 47.318 16.0382L51.6264 17.1928C52.2211 17.3522 52.5741 17.9638 52.4147 18.5586L49.9578 27.7268C49.7681 28.4349 50.3019 29.1303 51.0351 29.1303L60.2294 29.1303C62.0768 29.1303 63.5744 30.628 63.5744 32.4754C63.5744 34.3228 62.0768 35.8205 60.2294 35.8205L59.119 35.8205C58.5442 35.8205 58.0636 36.2577 58.0091 36.8299L54.0198 78.7199C53.7473 81.5813 51.344 83.7666 48.4697 83.7666L31.1048 83.7666C28.2305 83.7666 25.8272 81.5813 25.5547 78.7199L21.5653 36.8299C21.5108 36.2577 21.0302 35.8206 20.4554 35.8205L19.3451 35.8205C17.4976 35.8205 16 34.3229 16 32.4754C16.0001 30.628 17.4977 29.1303 19.3451 29.1303L41.8002 29.1303C42.3048 29.1303 42.7465 28.7913 42.8771 28.3039L45.9525 16.8269ZM33.0971 61.8378C30.4286 61.8378 28.2653 64.001 28.2653 66.6695C28.2654 69.338 30.4286 71.5013 33.0971 71.5013C35.7655 71.5013 37.9288 69.338 37.9288 66.6695C37.9288 64.001 35.7656 61.8378 33.0971 61.8378ZM47.2207 49.9441C44.5522 49.9441 42.3889 52.1074 42.3889 54.7759C42.389 57.4444 44.5523 59.6077 47.2207 59.6077C49.8892 59.6077 52.0524 57.4444 52.0525 54.7759C52.0525 52.1074 49.8892 49.9441 47.2207 49.9441ZM37.5572 42.5106C34.8887 42.5106 32.7254 44.6739 32.7254 47.3424C32.7255 50.0109 34.8887 52.1742 37.5572 52.1742C40.2256 52.1742 42.3889 50.0109 42.3889 47.3424C42.3889 44.6739 40.2257 42.5106 37.5572 42.5106Z" fill="var(--fill-0, #D9D9D9)" style="fill:#D9D9D9;fill:color(display-p3 0.8510 0.8510 0.8510);fill-opacity:1;"/>
</g>
</svg>
