<svg preserveAspectRatio="none" width="100%" height="100%" overflow="visible" style="display: block;" viewBox="0 0 12.02 16.6806" fill="none" xmlns="http://www.w3.org/2000/svg">
<g id="Container">
<path id="Icon" d="M3.005 15.5767V13.7967L4.808 12.3015V9.73835L0 12.0167V9.88075L4.808 5.89355V2.76075C4.808 2.36915 4.9257 2.03392 5.16109 1.75505C5.39648 1.47618 5.67945 1.33675 6.01 1.33675C6.34055 1.33675 6.62352 1.47618 6.85891 1.75505C7.0943 2.03392 7.212 2.36915 7.212 2.76075V5.89355L12.02 9.88075V12.0167L7.212 9.73835V12.3015L9.015 13.7967V15.5767L6.01 14.5087L3.005 15.5767V15.5767" fill="var(--fill-0, black)" style="fill:black;fill-opacity:1;"/>
<rect id="Horizontal Divider" width="18.3574" height="1.70054" transform="matrix(0.55534 -0.831624 0.55534 0.831624 0.440304 15.2664)" fill="var(--fill-0, #FF5A5F)" style="fill:#FF5A5F;fill:color(display-p3 1.0000 0.3529 0.3725);fill-opacity:1;"/>
</g>
</svg>
