<svg preserveAspectRatio="none" width="100%" height="100%" overflow="visible" style="display: block;" viewBox="0 0 402 44" fill="none" xmlns="http://www.w3.org/2000/svg">
<g id="Frame 34" clip-path="url(#clip0_91_4320)">
<path id="Subtract" d="M427.111 10.9307L390.418 35.1865L371.335 28.9961L368.381 28.3555L357.813 36.7285L333.665 35.5488L329.233 31.9844L329.082 31.8623L317.489 42.5566L305.407 33.3799L296.61 41.248L276.529 34.3301L269.871 33.3418L260.113 36.0137L246.762 37.3652L246.533 37.3867L230.5 38.7969L219.526 34.4404L204.48 37.3984L193.452 28.1758L193.39 28.1943L174.891 41.5352L160.296 33.5645L151.819 36.6943L134.678 34.4678L125.174 32.1367L112.667 34.0039L106.373 32.002L93.1445 43.7363L74.5449 34.6455L68.585 34.7842L53.5898 38.0547L42.876 34.4326L31.6162 38.4805L14.8857 34.1025L-10.5381 28.7549L-10.5039 16.0615L-15.5 8H424.218L427.111 10.9307Z" fill="var(--fill-0, #F4F4F4)" fill-opacity="0.36" style="fill:#F4F4F4;fill:color(display-p3 0.9569 0.9569 0.9569);fill-opacity:0.36;"/>
<path id="Subtract_2" d="M427.111 2.93066L390.418 27.1865L371.335 20.9961L368.381 20.3555L357.813 28.7285L333.665 27.5488L329.233 23.9844L329.082 23.8623L317.489 34.5566L305.407 25.3799L296.61 33.248L276.529 26.3301L269.871 25.3418L260.113 28.0137L246.762 29.3652L246.533 29.3867L230.5 30.7969L219.526 26.4404L204.48 29.3984L193.452 20.1758L193.39 20.1943L174.891 33.5352L160.296 25.5645L151.819 28.6943L134.678 26.4678L125.174 24.1367L112.667 26.0039L106.373 24.002L93.1445 35.7363L74.5449 26.6455L68.585 26.7842L53.5898 30.0547L42.876 26.4326L31.6162 30.4805L14.8857 26.1025L-10.5381 20.7549L-10.5039 8.06152L-15.5 0H424.218L427.111 2.93066Z" fill="var(--fill-0, #F4F4F4)" style="fill:#F4F4F4;fill:color(display-p3 0.9569 0.9569 0.9569);fill-opacity:1;"/>
</g>
<defs>
<clipPath id="clip0_91_4320">
<rect width="402" height="44" fill="white" style="fill:white;fill-opacity:1;"/>
</clipPath>
</defs>
</svg>
