<svg preserveAspectRatio="none" width="100%" height="100%" overflow="visible" style="display: block;" viewBox="0 0 73.6824 42.8" fill="none" xmlns="http://www.w3.org/2000/svg">
<g id="Frame 100" filter="url(#filter0_d_91_4279)">
<rect x="8.9" y="8.9" width="55.8824" height="25" rx="12.5" fill="var(--fill-0, #FF2542)" style="fill:#FF2542;fill:color(display-p3 1.0000 0.1451 0.2588);fill-opacity:1;" shape-rendering="crispEdges"/>
<path id="Vector" d="M52.1423 18.2793C52.1453 18.3028 52.157 18.3087 52.2453 18.3072H53.3114C53.4875 18.3077 53.6615 18.2686 53.8203 18.1927C53.9792 18.1168 54.119 18.006 54.2292 17.8687C54.3394 17.7314 54.4172 17.571 54.4569 17.3994C54.4966 17.2279 54.4972 17.0496 54.4585 16.8778C54.3961 16.5904 54.2275 16.3372 53.9865 16.1687C53.7455 16.0003 53.4498 15.9289 53.1585 15.969C52.8756 16.0059 52.616 16.145 52.4286 16.3601C52.2411 16.5752 52.1388 16.8513 52.1408 17.1366C52.1408 17.2851 52.1379 18.116 52.1423 18.2793ZM35.2173 25.3498C34.9188 25.3513 33.2276 25.3557 32.7394 25.3543C32.3566 25.3509 31.9766 25.2883 31.6129 25.169C31.6043 25.1664 31.5951 25.1671 31.5869 25.1709C31.5788 25.1747 31.5724 25.1813 31.5688 25.1895L30.5173 27.4675C30.5135 27.4758 30.5129 27.4852 30.5156 27.4938C30.5183 27.5025 30.5242 27.5099 30.532 27.5145C30.6953 27.6028 31.0261 27.6969 31.26 27.6969C32.2306 27.7116 33.2011 27.6998 34.1732 27.6969C34.1879 27.6969 34.2026 27.6881 34.207 27.6748L35.2541 25.4028C35.2569 25.397 35.2582 25.3906 35.2578 25.3841C35.2574 25.3777 35.2553 25.3715 35.2517 25.3661C35.2481 25.3608 35.2432 25.3564 35.2374 25.3536C35.2316 25.3507 35.2252 25.3494 35.2188 25.3498H35.2173ZM19.8953 18.3248C19.7908 18.3248 19.7835 18.3278 19.7835 18.3395C19.7767 18.3785 19.7718 18.4178 19.7688 18.4572C19.7291 19.041 19.7129 19.1851 19.4247 22.9572C19.407 23.3101 19.3747 23.5293 19.2261 23.8498C19.1879 23.9337 19.1776 23.9116 19.2306 24.0145C19.2982 24.1498 20.232 26.2543 20.3879 26.5734C20.3997 26.5954 20.4041 26.6028 20.4129 26.6028C20.4247 26.6028 20.4614 26.5645 20.482 26.5381C20.6982 26.2631 20.8761 25.9631 21.0276 25.6469C21.4776 24.7131 21.6747 23.6984 21.7423 23.1381C21.7629 22.9763 21.7732 22.8145 21.7864 22.6528L22.0864 18.8057L22.1188 18.3748C22.1232 18.3322 22.1188 18.3263 22.0747 18.3248H19.8953ZM30.4879 23.8498C30.3569 23.5705 30.2891 23.2657 30.2894 22.9572C30.2835 22.8337 30.2438 22.3837 29.9438 18.4572C29.9427 18.4166 29.9377 18.3763 29.9291 18.3366C29.9232 18.3204 29.8526 18.3248 29.8173 18.3248H27.6408C27.5967 18.3263 27.5908 18.3322 27.5967 18.3748L27.6276 18.8057C27.7394 20.2498 27.8526 21.694 27.9703 23.1381C28.0438 23.7263 28.2438 24.7337 28.6864 25.6469C28.8379 25.9631 29.0144 26.2631 29.2306 26.5381C29.2526 26.5645 29.285 26.6131 29.3011 26.6101C29.3306 26.6057 30.3923 24.1954 30.4835 24.0145C30.5364 23.9116 30.5276 23.9337 30.4879 23.8498ZM36.1658 22.5072H34.8835C34.8524 22.5075 34.8216 22.4999 34.7942 22.4852C34.7667 22.4705 34.7434 22.4492 34.7264 22.4231C34.7094 22.397 34.6993 22.367 34.6969 22.336C34.6946 22.3049 34.7001 22.2738 34.7129 22.2454L36.4453 18.3851C36.4477 18.3795 36.4487 18.3734 36.4482 18.3673C36.4477 18.3612 36.4456 18.3553 36.4423 18.3502C36.4389 18.3451 36.4343 18.3409 36.429 18.338C36.4236 18.3351 36.4175 18.3336 36.4114 18.3337L34.4732 18.3293C34.4366 18.3294 34.4006 18.3203 34.3684 18.3029C34.3362 18.2854 34.309 18.2601 34.2892 18.2293C34.2694 18.1985 34.2577 18.1632 34.2552 18.1267C34.2526 18.0902 34.2593 18.0537 34.2747 18.0204L35.5629 15.1469C35.5653 15.1413 35.5664 15.1352 35.5658 15.1291C35.5653 15.123 35.5633 15.1171 35.5599 15.112C35.5566 15.1069 35.552 15.1027 35.5466 15.0998C35.5412 15.0969 35.5352 15.0954 35.5291 15.0954H33.235C33.2203 15.0954 33.2056 15.1043 33.1997 15.1175L31.8379 18.1587C31.7129 18.4072 31.3761 19.091 31.2511 19.5381C31.2244 19.6292 31.2145 19.7243 31.2217 19.819C31.2268 19.9326 31.2605 20.0431 31.3196 20.1402C31.3787 20.2374 31.4614 20.3181 31.56 20.3748C31.7677 20.4877 32 20.5478 32.2364 20.5498H33.1041C33.1644 20.5498 32.0923 22.7293 31.8776 23.4498C31.8525 23.5317 31.8411 23.6172 31.8438 23.7028C31.8446 23.8213 31.8762 23.9375 31.9355 24.0401C31.9948 24.1428 32.0798 24.2282 32.182 24.2881C32.4026 24.4234 32.685 24.4645 32.8806 24.4645L35.3217 24.4631C35.3364 24.4631 35.3511 24.4543 35.3556 24.441L36.2011 22.5587C36.2036 22.5529 36.2046 22.5467 36.2041 22.5405C36.2035 22.5342 36.2013 22.5283 36.1978 22.5231C36.1942 22.518 36.1895 22.5138 36.1839 22.511C36.1783 22.5082 36.1721 22.5069 36.1658 22.5072ZM25.9747 15.2469H23.7526C23.7461 15.2465 23.7395 15.2474 23.7333 15.2497C23.7272 15.252 23.7216 15.2555 23.7169 15.2601C23.7122 15.2647 23.7085 15.2702 23.706 15.2763C23.7035 15.2823 23.7024 15.2889 23.7026 15.2954C23.7026 16.8366 23.6879 19.4057 23.6879 25.3381C23.6879 25.7616 23.2923 25.7234 23.2761 25.7234H22.1879C22.1291 25.7248 22.1232 25.7293 22.1291 25.7925C22.1306 25.8469 22.8129 27.3572 22.9453 27.6498C22.96 27.6793 22.9894 27.6984 23.0203 27.6984C23.2511 27.7028 24.1482 27.7116 24.3997 27.6778C24.6247 27.6484 24.8408 27.5895 25.0438 27.4837C25.485 27.2543 25.7644 26.8675 25.9188 26.3587C25.9953 26.1057 26.0291 25.8395 26.0291 25.5748C26.032 22.1484 26.0291 18.7219 26.0188 15.294C26.0188 15.2815 26.0138 15.2695 26.005 15.2607C25.9962 15.2519 25.9842 15.2469 25.9717 15.2469H25.9747ZM43.3041 25.3881C43.3041 25.3675 43.2894 25.3572 43.2688 25.3557H41.1144C41.0438 25.3543 41.0423 25.3528 41.0408 25.2837V18.4307C41.0408 18.3248 41.0335 18.3278 41.1438 18.3278H42.4129C42.5306 18.3278 42.5232 18.3337 42.5232 18.219V16.094C42.5232 15.9734 42.532 15.9822 42.4056 15.9822H37.2585C37.1644 15.9822 37.1482 15.9734 37.1482 16.0895V18.2145C37.1482 18.3366 37.1394 18.3278 37.2658 18.3278H38.5217C38.632 18.3278 38.6247 18.3219 38.6247 18.4307V25.2307C38.6247 25.3704 38.6364 25.3543 38.4997 25.3543C37.9556 25.3543 36.8673 25.3513 36.582 25.3543C36.5114 25.3557 36.4938 25.3984 36.4938 25.3984L35.4688 27.6322C35.4688 27.6322 35.4482 27.669 35.457 27.6851C35.4658 27.6998 35.4761 27.6969 35.5423 27.6969C38.1129 27.7013 40.682 27.6998 43.2526 27.6998C43.2967 27.6984 43.3026 27.691 43.3041 27.6513V25.3881ZM49.4467 20.344C49.4467 20.3631 49.4364 20.3778 49.4173 20.3793C48.9085 20.3881 48.3997 20.3851 47.8923 20.3851C47.8717 20.3822 47.86 20.3704 47.86 20.3498C47.8526 19.7116 47.8497 19.0719 47.8453 18.4337C47.8453 18.3278 47.8364 18.3293 47.9482 18.3307L49.0261 18.3263C49.0864 18.3263 49.1453 18.3293 49.2026 18.3484C49.3394 18.3851 49.4379 18.5057 49.4453 18.6484C49.4541 19.2822 49.4482 20.344 49.4467 20.344ZM53.3732 20.7028C52.9721 20.4932 52.5272 20.3813 52.0747 20.3763H51.81C51.7511 20.3748 51.7511 20.3719 51.7482 20.3175V18.766C51.7482 18.5719 51.7379 18.3793 51.7114 18.1866C51.6764 17.9169 51.6005 17.6541 51.4864 17.4072C51.2779 16.9595 50.9281 16.5927 50.4908 16.3631C50.0384 16.1199 49.5339 15.9898 49.0203 15.9837C48.7953 15.9793 48.1864 15.9837 47.9614 15.9837C47.8585 15.9837 47.8614 15.9895 47.8614 15.8881V15.1631C47.8614 15.1175 47.8467 15.1028 47.7938 15.1057H45.5614C45.5614 15.1057 45.5379 15.1057 45.5276 15.116C45.5188 15.1248 45.5158 15.1337 45.5158 15.1498V15.9528C45.5041 16.0057 45.432 15.9748 45.3953 15.9851H43.9982C43.9658 15.9881 43.957 15.9969 43.9541 16.0322V18.2101C43.9541 18.3425 43.9482 18.3307 44.0747 18.3307H45.4173C45.5379 18.3307 45.5232 18.519 45.5232 18.519V20.2072C45.5232 20.2072 45.5276 20.3793 45.435 20.3793H43.2556C43.1556 20.3793 43.1673 20.4998 43.1673 20.4998V22.6248C43.1673 22.6248 43.1526 22.7248 43.2614 22.7248H45.4041C45.5247 22.7248 45.5158 22.716 45.5158 22.841V27.5837C45.5158 27.7131 45.5056 27.7028 45.6364 27.7028H47.7394C47.8717 27.7028 47.86 27.7131 47.86 27.5851V22.7763C47.86 22.7337 47.8688 22.7248 47.9085 22.7248L51.3247 22.7204C51.4688 22.7204 51.6056 22.7498 51.7364 22.8101C51.8532 22.8617 51.9531 22.9453 52.0244 23.0512C52.0957 23.1571 52.1355 23.281 52.1394 23.4087C52.1511 23.9895 52.1438 24.5704 52.1438 25.1513C52.1438 25.5322 51.9864 25.691 51.6585 25.691H49.8673C49.8335 25.694 49.8247 25.7028 49.8261 25.7395C50.0967 26.3822 50.3761 27.0204 50.6644 27.6557C50.6696 27.667 50.6779 27.6765 50.6883 27.6833C50.6987 27.69 50.7108 27.6937 50.7232 27.694C50.9732 27.7013 51.2232 27.6969 51.4732 27.6984C51.6938 27.6954 52.2335 27.7043 52.4526 27.6837C52.6559 27.6675 52.8569 27.6305 53.0526 27.5734C53.9203 27.3087 54.4864 26.5469 54.4879 25.6425V22.7293C54.4879 22.541 54.4732 22.3557 54.4379 22.1704C54.4379 22.2851 54.3953 21.2278 53.3732 20.7028Z" fill="var(--fill-0, white)" style="fill:white;fill-opacity:1;"/>
</g>
<defs>
<filter id="filter0_d_91_4279" x="0" y="0" width="73.6824" height="42.8" filterUnits="userSpaceOnUse" color-interpolation-filters="sRGB">
<feFlood flood-opacity="0" result="BackgroundImageFix"/>
<feColorMatrix in="SourceAlpha" type="matrix" values="0 0 0 0 0 0 0 0 0 0 0 0 0 0 0 0 0 0 127 0" result="hardAlpha"/>
<feOffset/>
<feGaussianBlur stdDeviation="4.45"/>
<feComposite in2="hardAlpha" operator="out"/>
<feColorMatrix type="matrix" values="0 0 0 0 0.749155 0 0 0 0 0.138314 0 0 0 0 0.138314 0 0 0 1 0"/>
<feBlend mode="normal" in2="BackgroundImageFix" result="effect1_dropShadow_91_4279"/>
<feBlend mode="normal" in="SourceGraphic" in2="effect1_dropShadow_91_4279" result="shape"/>
</filter>
</defs>
</svg>
