<svg preserveAspectRatio="none" width="100%" height="100%" overflow="visible" style="display: block;" viewBox="0 0 12 12" fill="none" xmlns="http://www.w3.org/2000/svg">
<path id="Vector (Stroke)" d="M1.7998 12C0.843766 11.9999 0.0983618 11.3146 0.00878906 10.3887L0 10.2002V5.40039H12V10.2002L11.9912 10.3887C11.9016 11.3146 11.1562 11.9999 10.2002 12H1.7998ZM2 10H10V7.40039H2V10ZM9 1.2002H10.2002C11.2201 1.20029 12 1.98006 12 3V4.2002H0V3C5.69682e-08 2.04387 0.685363 1.29857 1.61133 1.20898L1.7998 1.2002H3V0.599609C3.00017 0.239957 3.23996 0.000173554 3.59961 0C3.95948 0 4.20002 0.239826 4.2002 0.599609V1.2002H7.7998V0.599609C7.79998 0.239826 8.04052 0 8.40039 0C8.76004 0.000173343 8.99983 0.239956 9 0.599609V1.2002Z" fill="var(--fill-0, white)" style="fill:white;fill-opacity:1;"/>
</svg>
