<svg width="12" height="12" viewBox="0 0 12 12" fill="none" xmlns="http://www.w3.org/2000/svg">
<path d="M11.0742 7.32812C11.0742 7.10938 10.9648 6.91797 10.8008 6.80859L6.39844 4.07422V0.875C6.39844 0.382812 6.01562 0 5.52344 0C5.05859 0 4.64844 0.382812 4.64844 0.875V4.07422L0.273438 6.80859C0.109375 6.91797 0 7.10938 0 7.32812C0 7.73828 0.382812 8.03906 0.792969 7.90234L4.64844 6.69922V9.89844L3.60938 10.6914C3.52734 10.7461 3.5 10.8281 3.5 10.9375V11.2656C3.5 11.457 3.66406 11.5938 3.85547 11.5391L5.52344 11.0742L7.19141 11.5391C7.38281 11.5938 7.57422 11.457 7.57422 11.2656V10.9375C7.57422 10.8281 7.54688 10.7461 7.46484 10.6914L6.39844 9.89844V6.69922L10.2812 7.90234C10.6641 8.03906 11.0742 7.73828 11.0742 7.32812Z" fill="white" style="fill:white;fill-opacity:1;"/>
</svg>
