<svg width="10" height="12" viewBox="0 0 10 12" fill="none" xmlns="http://www.w3.org/2000/svg">
<path d="M0 8.14844C0 8.66797 0.246094 9.13281 0.601562 9.46094V10.1992C0.601562 10.6914 0.984375 11.0742 1.47656 11.0742C1.94141 11.0742 2.35156 10.6914 2.35156 10.1992V9.89844H7V10.1992C7 10.6641 7.41016 11.0742 7.875 11.0742C8.36719 11.0742 8.75 10.6914 8.75 10.1992V9.46094C9.10547 9.13281 9.35156 8.66797 9.35156 8.14844V2.32422C9.35156 0.273438 7.24609 0 4.67578 0C2.10547 0 0 0.273438 0 2.32422V8.14844ZM2.05078 8.75C1.55859 8.75 1.17578 8.33984 1.17578 7.875C1.17578 7.38281 1.55859 7 2.05078 7C2.54297 7 2.92578 7.38281 2.92578 7.875C2.92578 8.33984 2.54297 8.75 2.05078 8.75ZM7.30078 8.75C6.80859 8.75 6.42578 8.33984 6.42578 7.875C6.42578 7.38281 6.80859 7 7.30078 7C7.79297 7 8.17578 7.38281 8.17578 7.875C8.17578 8.33984 7.79297 8.75 7.30078 8.75ZM8.17578 5.25H1.17578V2.32422H8.17578V5.25Z" fill="black" style="fill:black;fill-opacity:1;"/>
</svg>
