<svg width="24" height="20" viewBox="0 0 24 20" fill="none" xmlns="http://www.w3.org/2000/svg">
<path d="M5.84946 12.137C5.18292 11.7665 4.36364 12.2484 4.36364 13.011V15.1673C4.36364 15.5304 4.56045 15.865 4.87782 16.0413L11.5142 19.73C11.8163 19.8979 12.1837 19.8979 12.4858 19.73L19.1222 16.0413C19.4396 15.865 19.6364 15.5304 19.6364 15.1673V13.011C19.6364 12.2484 18.8171 11.7665 18.1505 12.137L12.4858 15.2855C12.1837 15.4534 11.8163 15.4534 11.5142 15.2855L5.84946 12.137ZM12.4856 0.269802C12.1836 0.102011 11.8164 0.102011 11.5144 0.269802L1.57348 5.79251C0.887674 6.17351 0.887674 7.15982 1.57348 7.54082L11.5144 13.0635C11.8164 13.2313 12.1836 13.2313 12.4856 13.0635L22.4265 7.54082C23.1123 7.15982 23.1123 6.17351 22.4265 5.79251L12.4856 0.269802Z" fill="black" style="fill:black;fill-opacity:1;"/>
</svg>
