<svg width="10" height="12" viewBox="0 0 10 12" fill="none" xmlns="http://www.w3.org/2000/svg">
<path d="M4.67578 0C2.35156 0 0 0.273438 0 2.32422V7.875C0 8.99609 0.929688 9.89844 2.05078 9.89844L1.36719 10.582C1.20312 10.7461 1.33984 11.0742 1.58594 11.0742H2.21484C2.29688 11.0742 2.37891 11.0469 2.43359 10.9922L3.5 9.89844H5.85156L6.91797 10.9922C6.97266 11.0469 7.05469 11.0742 7.13672 11.0742H7.76562C8.01172 11.0742 8.14844 10.7461 7.95703 10.582L7.30078 9.89844C8.42188 9.89844 9.35156 8.99609 9.35156 7.875V2.32422C9.35156 0.273438 7 0 4.67578 0ZM2.05078 8.75C1.55859 8.75 1.17578 8.33984 1.17578 7.875C1.17578 7.38281 1.55859 7 2.05078 7C2.54297 7 2.92578 7.38281 2.92578 7.875C2.92578 8.33984 2.54297 8.75 2.05078 8.75ZM4.10156 4.64844H1.17578V2.32422H4.10156V4.64844ZM7.30078 8.75C6.80859 8.75 6.42578 8.33984 6.42578 7.875C6.42578 7.38281 6.80859 7 7.30078 7C7.79297 7 8.17578 7.38281 8.17578 7.875C8.17578 8.33984 7.79297 8.75 7.30078 8.75ZM8.17578 4.64844H5.25V2.32422H8.17578V4.64844Z" fill="white" style="fill:white;fill-opacity:1;"/>
</svg>
