<svg width="32" height="32" viewBox="0 0 32 32" fill="none" xmlns="http://www.w3.org/2000/svg">
<rect width="32" height="32" rx="16" fill="white" fill-opacity="0.2" style="fill:white;fill-opacity:0.2;"/>
<rect x="0.551724" y="0.551724" width="30.8966" height="30.8966" rx="15.4483" stroke="white" stroke-opacity="0.2" style="stroke:white;stroke-opacity:0.2;" stroke-width="1.10345"/>
<path d="M19.12 15.2191C18.6891 15.65 18.6891 16.3487 19.12 16.7796L23.8019 21.4615C24.2328 21.8925 24.2328 22.5911 23.8019 23.0221L23.0215 23.8025C22.5906 24.2334 21.8919 24.2334 21.461 23.8025L16.7791 19.1205C16.3482 18.6896 15.6495 18.6896 15.2186 19.1205L10.9282 23.4109C10.4973 23.8418 9.79861 23.8418 9.36769 23.4109L8.58729 22.6305C8.15636 22.1996 8.15636 21.5009 8.58729 21.07L12.8777 16.7796C13.3086 16.3487 13.3086 15.65 12.8777 15.2191L8.19645 10.5379C7.76552 10.107 7.76552 9.40831 8.19645 8.97738L8.97684 8.19698C9.40777 7.76606 10.1064 7.76606 10.5374 8.19698L15.2186 12.8782C15.6495 13.3091 16.3482 13.3091 16.7791 12.8782L21.0709 8.58645C21.5018 8.15552 22.2004 8.15552 22.6314 8.58645L23.4118 9.36684C23.8427 9.79777 23.8427 10.4964 23.4118 10.9274L19.12 15.2191Z" fill="white" style="fill:white;fill-opacity:1;"/>
</svg>
