<svg width="56" height="25" viewBox="0 0 56 25" fill="none" xmlns="http://www.w3.org/2000/svg">
<g filter="url(#filter0_d_214_13912)">
<rect width="55.8824" height="25" rx="12.5" fill="#FF2542" style="fill:#FF2542;fill:color(display-p3 1.0000 0.1451 0.2588);fill-opacity:1;" shape-rendering="crispEdges"/>
<path d="M43.2421 9.37914C43.2451 9.40267 43.2569 9.40855 43.3451 9.40708H44.4113C44.5873 9.40762 44.7613 9.36848 44.9202 9.29256C45.0791 9.21665 45.2188 9.10591 45.329 8.96858C45.4392 8.83125 45.517 8.67085 45.5567 8.4993C45.5964 8.32774 45.597 8.14945 45.5583 7.97766C45.4959 7.69032 45.3273 7.43712 45.0863 7.26863C44.8453 7.10015 44.5496 7.0288 44.2583 7.06884C43.9754 7.1058 43.7158 7.24491 43.5284 7.45997C43.341 7.67504 43.2386 7.95121 43.2407 8.23649C43.2407 8.38502 43.2377 9.2159 43.2421 9.37914ZM26.3171 16.4497C26.0186 16.4512 24.3274 16.4556 23.8392 16.4541C23.4564 16.4507 23.0764 16.3882 22.7127 16.2688C22.7041 16.2663 22.6949 16.267 22.6868 16.2708C22.6787 16.2746 22.6722 16.2812 22.6686 16.2894L21.6171 18.5674C21.6133 18.5756 21.6127 18.585 21.6154 18.5937C21.6182 18.6024 21.624 18.6098 21.6318 18.6144C21.7951 18.7027 22.126 18.7968 22.3598 18.7968C23.3304 18.8115 24.301 18.7997 25.273 18.7968C25.2877 18.7968 25.3024 18.788 25.3068 18.7747L26.3539 16.5027C26.3568 16.4969 26.358 16.4905 26.3576 16.484C26.3572 16.4776 26.3551 16.4714 26.3515 16.466C26.3479 16.4607 26.343 16.4563 26.3372 16.4535C26.3315 16.4506 26.325 16.4493 26.3186 16.4497H26.3171ZM10.9951 9.42472C10.8907 9.42472 10.8833 9.42767 10.8833 9.43943C10.8765 9.47839 10.8716 9.51765 10.8686 9.55708C10.8289 10.1409 10.8127 10.285 10.5245 14.0571C10.5068 14.41 10.4745 14.6291 10.326 14.9497C10.2877 15.0335 10.2774 15.0115 10.3304 15.1144C10.398 15.2497 11.3318 17.3541 11.4877 17.6733C11.4995 17.6953 11.5039 17.7027 11.5127 17.7027C11.5245 17.7027 11.5613 17.6644 11.5818 17.638C11.798 17.363 11.976 17.063 12.1274 16.7468C12.5774 15.813 12.7745 14.7983 12.8421 14.238C12.8627 14.0762 12.873 13.9144 12.8863 13.7527L13.1863 9.90561L13.2186 9.47472C13.223 9.43208 13.2186 9.42619 13.1745 9.42472H10.9951ZM21.5877 14.9497C21.4567 14.6704 21.389 14.3656 21.3892 14.0571C21.3833 13.9335 21.3436 13.4835 21.0436 9.55708C21.0425 9.51651 21.0376 9.47614 21.0289 9.43649C21.023 9.42031 20.9524 9.42472 20.9171 9.42472H18.7407C18.6966 9.42619 18.6907 9.43208 18.6966 9.47472L18.7274 9.90561C18.8392 11.3497 18.9524 12.7938 19.0701 14.238C19.1436 14.8262 19.3436 15.8335 19.7863 16.7468C19.9377 17.063 20.1142 17.363 20.3304 17.638C20.3524 17.6644 20.3848 17.713 20.401 17.71C20.4304 17.7056 21.4921 15.2953 21.5833 15.1144C21.6363 15.0115 21.6274 15.0335 21.5877 14.9497ZM27.2657 13.6071H25.9833C25.9522 13.6074 25.9215 13.5998 25.894 13.5851C25.8666 13.5704 25.8433 13.549 25.8263 13.523C25.8093 13.4969 25.7991 13.4669 25.7967 13.4359C25.7944 13.4048 25.7999 13.3737 25.8127 13.3453L27.5451 9.48502C27.5475 9.47941 27.5485 9.47329 27.548 9.46719C27.5475 9.4611 27.5455 9.45523 27.5421 9.45012C27.5388 9.44501 27.5342 9.44082 27.5288 9.43793C27.5234 9.43503 27.5174 9.43353 27.5113 9.43355L25.573 9.42914C25.5364 9.42929 25.5004 9.42021 25.4682 9.40274C25.4361 9.38527 25.4088 9.35997 25.389 9.32919C25.3693 9.2984 25.3575 9.26312 25.355 9.22661C25.3525 9.1901 25.3592 9.15354 25.3745 9.12031L26.6627 6.24678C26.6652 6.24118 26.6662 6.23505 26.6657 6.22896C26.6651 6.22287 26.6631 6.217 26.6598 6.21189C26.6564 6.20678 26.6518 6.20258 26.6464 6.19969C26.641 6.1968 26.635 6.19529 26.6289 6.19531H24.3348C24.3201 6.19531 24.3054 6.20414 24.2995 6.21737L22.9377 9.25855C22.8127 9.50708 22.476 10.1909 22.351 10.638C22.3243 10.729 22.3143 10.8242 22.3216 10.9188C22.3267 11.0325 22.3603 11.143 22.4194 11.2401C22.4786 11.3373 22.5612 11.418 22.6598 11.4747C22.8675 11.5876 23.0998 11.6477 23.3363 11.6497H24.2039C24.2642 11.6497 23.1921 13.8291 22.9774 14.5497C22.9523 14.6316 22.9409 14.7171 22.9436 14.8027C22.9444 14.9212 22.9761 15.0374 23.0354 15.14C23.0946 15.2426 23.1796 15.3281 23.2818 15.388C23.5024 15.5233 23.7848 15.5644 23.9804 15.5644L26.4216 15.563C26.4363 15.563 26.451 15.5541 26.4554 15.5409L27.301 13.6585C27.3035 13.6528 27.3045 13.6466 27.3039 13.6403C27.3033 13.6341 27.3011 13.6282 27.2976 13.623C27.2941 13.6179 27.2893 13.6137 27.2837 13.6109C27.2781 13.6081 27.2719 13.6068 27.2657 13.6071ZM17.0745 6.34678H14.8524C14.8459 6.34637 14.8393 6.34733 14.8332 6.3496C14.827 6.35188 14.8214 6.35541 14.8167 6.35998C14.812 6.36455 14.8083 6.37005 14.8058 6.37614C14.8034 6.38222 14.8022 6.38875 14.8024 6.39531C14.8024 7.93649 14.7877 10.5056 14.7877 16.438C14.7877 16.8615 14.3921 16.8233 14.376 16.8233H13.2877C13.2289 16.8247 13.223 16.8291 13.2289 16.8924C13.2304 16.9468 13.9127 18.4571 14.0451 18.7497C14.0598 18.7791 14.0892 18.7983 14.1201 18.7983C14.351 18.8027 15.248 18.8115 15.4995 18.7777C15.7245 18.7483 15.9407 18.6894 16.1436 18.5835C16.5848 18.3541 16.8642 17.9674 17.0186 17.4585C17.0951 17.2056 17.1289 16.9394 17.1289 16.6747C17.1318 13.2483 17.1289 9.82178 17.1186 6.39384C17.1186 6.38136 17.1137 6.36939 17.1048 6.36057C17.096 6.35174 17.084 6.34678 17.0716 6.34678H17.0745ZM34.4039 16.488C34.4039 16.4674 34.3892 16.4571 34.3686 16.4556H32.2142C32.1436 16.4541 32.1421 16.4527 32.1407 16.3835V9.53061C32.1407 9.42473 32.1333 9.42767 32.2436 9.42767H33.5127C33.6304 9.42767 33.623 9.43355 33.623 9.31884V7.19384C33.623 7.07325 33.6319 7.08208 33.5054 7.08208H28.3583C28.2642 7.08208 28.248 7.07325 28.248 7.18943V9.31443C28.248 9.43649 28.2392 9.42767 28.3657 9.42767H29.6216C29.7318 9.42767 29.7245 9.42178 29.7245 9.53061V16.3306C29.7245 16.4703 29.7363 16.4541 29.5995 16.4541C29.0554 16.4541 27.9671 16.4512 27.6819 16.4541C27.6113 16.4556 27.5936 16.4983 27.5936 16.4983L26.5686 18.7321C26.5686 18.7321 26.548 18.7688 26.5568 18.785C26.5657 18.7997 26.576 18.7968 26.6421 18.7968C29.2127 18.8012 31.7819 18.7997 34.3524 18.7997C34.3966 18.7983 34.4024 18.7909 34.4039 18.7512V16.488ZM40.5466 11.4438C40.5466 11.463 40.5363 11.4777 40.5171 11.4791C40.0083 11.488 39.4995 11.485 38.9921 11.485C38.9716 11.4821 38.9598 11.4703 38.9598 11.4497C38.9524 10.8115 38.9495 10.1718 38.9451 9.53355C38.9451 9.42767 38.9363 9.42914 39.048 9.43061L40.126 9.4262C40.1863 9.4262 40.2451 9.42914 40.3024 9.44825C40.4392 9.48502 40.5377 9.60561 40.5451 9.74825C40.5539 10.3821 40.548 11.4438 40.5466 11.4438ZM44.473 11.8027C44.072 11.5931 43.627 11.4812 43.1745 11.4762H42.9098C42.851 11.4747 42.851 11.4718 42.848 11.4174V9.8659C42.848 9.67178 42.8377 9.47914 42.8113 9.28649C42.7762 9.01678 42.7004 8.75396 42.5863 8.50708C42.3777 8.05938 42.0279 7.69255 41.5907 7.46296C41.1382 7.21982 40.6337 7.08965 40.1201 7.08355C39.8951 7.07914 39.2863 7.08355 39.0613 7.08355C38.9583 7.08355 38.9613 7.08943 38.9613 6.98796V6.26296C38.9613 6.21737 38.9466 6.20267 38.8936 6.20561H36.6613C36.6613 6.20561 36.6377 6.20561 36.6274 6.2159C36.6186 6.22472 36.6157 6.23355 36.6157 6.24972V7.05267C36.6039 7.10561 36.5319 7.07472 36.4951 7.08502H35.098C35.0657 7.08796 35.0569 7.09678 35.0539 7.13208V9.31002C35.0539 9.44237 35.048 9.43061 35.1745 9.43061H36.5171C36.6377 9.43061 36.623 9.61884 36.623 9.61884V11.3071C36.623 11.3071 36.6274 11.4791 36.5348 11.4791H34.3554C34.2554 11.4791 34.2671 11.5997 34.2671 11.5997V13.7247C34.2671 13.7247 34.2524 13.8247 34.3613 13.8247H36.5039C36.6245 13.8247 36.6157 13.8159 36.6157 13.9409V18.6835C36.6157 18.813 36.6054 18.8027 36.7363 18.8027H38.8392C38.9716 18.8027 38.9598 18.813 38.9598 18.685V13.8762C38.9598 13.8335 38.9686 13.8247 39.0083 13.8247L42.4245 13.8203C42.5686 13.8203 42.7054 13.8497 42.8363 13.91C42.9531 13.9616 43.0529 14.0452 43.1242 14.1511C43.1955 14.257 43.2354 14.3809 43.2392 14.5085C43.251 15.0894 43.2436 15.6703 43.2436 16.2512C43.2436 16.6321 43.0863 16.7909 42.7583 16.7909H40.9671C40.9333 16.7938 40.9245 16.8027 40.926 16.8394C41.1966 17.4821 41.476 18.1203 41.7642 18.7556C41.7694 18.7669 41.7777 18.7764 41.7881 18.7832C41.7985 18.7899 41.8106 18.7936 41.823 18.7938C42.073 18.8012 42.323 18.7968 42.573 18.7983C42.7936 18.7953 43.3333 18.8041 43.5524 18.7835C43.7557 18.7674 43.9567 18.7304 44.1524 18.6733C45.0201 18.4085 45.5863 17.6468 45.5877 16.7424V13.8291C45.5877 13.6409 45.573 13.4556 45.5377 13.2703C45.5377 13.385 45.4951 12.3277 44.473 11.8027Z" fill="white" style="fill:white;fill-opacity:1;"/>
</g>
<defs>
<filter id="filter0_d_214_13912" x="-8.9" y="-8.9" width="73.6823" height="42.8" filterUnits="userSpaceOnUse" color-interpolation-filters="sRGB">
<feFlood flood-opacity="0" result="BackgroundImageFix"/>
<feColorMatrix in="SourceAlpha" type="matrix" values="0 0 0 0 0 0 0 0 0 0 0 0 0 0 0 0 0 0 127 0" result="hardAlpha"/>
<feOffset/>
<feGaussianBlur stdDeviation="4.45"/>
<feComposite in2="hardAlpha" operator="out"/>
<feColorMatrix type="matrix" values="0 0 0 0 0.749155 0 0 0 0 0.138314 0 0 0 0 0.138314 0 0 0 1 0"/>
<feBlend mode="normal" in2="BackgroundImageFix" result="effect1_dropShadow_214_13912"/>
<feBlend mode="normal" in="SourceGraphic" in2="effect1_dropShadow_214_13912" result="shape"/>
</filter>
</defs>
</svg>
