<svg width="36" height="33" viewBox="0 0 36 33" fill="none" xmlns="http://www.w3.org/2000/svg">
<g filter="url(#filter0_d_351_3424)">
<path d="M14.4486 1.99585C15.9893 -0.665286 19.8313 -0.665284 21.372 1.99586L35.2763 26.0124C36.8202 28.6791 34.896 32.0166 31.8146 32.0166H4.00598C0.924655 32.0166 -0.999581 28.6791 0.544277 26.0124L14.4486 1.99585Z" fill="#76E92A" style="fill:#76E92A;fill:color(display-p3 0.4632 0.9125 0.1652);fill-opacity:1;"/>
<path d="M14.4487 1.99583C15.9894 -0.665255 19.8309 -0.665295 21.3715 1.99583L35.2758 26.0124C36.8196 28.6791 34.8952 32.0163 31.8139 32.0163V30.0163C33.3545 30.0163 34.3171 28.3477 33.5454 27.0144L19.6411 2.99778C18.8707 1.66721 16.9495 1.66721 16.1791 2.99778L2.27485 27.0144C1.50302 28.3476 2.46484 30.0161 4.00532 30.0163V32.0163C1.0205 32.0161 -0.878027 28.8844 0.409616 26.2644L0.544381 26.0124L14.4487 1.99583ZM31.8139 30.0163V32.0163H4.00532V30.0163H31.8139Z" fill="#316437" fill-opacity="0.8" style="fill:#316437;fill:color(display-p3 0.1926 0.3941 0.2161);fill-opacity:0.8;"/>
<path d="M24.2657 16.3956C25.0054 17.1355 25.0054 18.3349 24.2657 19.0748L18.1248 25.2158C17.9728 25.3677 17.8007 25.4867 17.6179 25.5762C16.8971 25.9768 15.9713 25.8727 15.3592 25.2606L11.3396 21.2411C10.5998 20.5011 10.5998 19.3017 11.3396 18.5618C12.0795 17.8219 13.2789 17.822 14.0189 18.5618L16.7195 21.2625L21.5864 16.3956C22.3264 15.6558 23.5258 15.6557 24.2657 16.3956Z" fill="#316437" fill-opacity="0.8" style="fill:#316437;fill:color(display-p3 0.1926 0.3941 0.2161);fill-opacity:0.8;"/>
</g>
<defs>
<filter id="filter0_d_351_3424" x="-8" y="-8" width="51.8203" height="48.0156" filterUnits="userSpaceOnUse" color-interpolation-filters="sRGB">
<feFlood flood-opacity="0" result="BackgroundImageFix"/>
<feColorMatrix in="SourceAlpha" type="matrix" values="0 0 0 0 0 0 0 0 0 0 0 0 0 0 0 0 0 0 127 0" result="hardAlpha"/>
<feOffset/>
<feGaussianBlur stdDeviation="4"/>
<feComposite in2="hardAlpha" operator="out"/>
<feColorMatrix type="matrix" values="0 0 0 0 0.352941 0 0 0 0 0.72549 0 0 0 0 0.105882 0 0 0 0.5 0"/>
<feBlend mode="normal" in2="BackgroundImageFix" result="effect1_dropShadow_351_3424"/>
<feBlend mode="normal" in="SourceGraphic" in2="effect1_dropShadow_351_3424" result="shape"/>
</filter>
</defs>
</svg>
