<svg width="17" height="17" viewBox="0 0 17 17" fill="none" xmlns="http://www.w3.org/2000/svg">
<path d="M8.50045 7.65C8.72593 7.65 8.94217 7.73955 9.10161 7.89896C9.26104 8.05837 9.35061 8.27457 9.35061 8.5V14.0964L10.4499 12.9982C10.6095 12.8388 10.8259 12.7494 11.0515 12.7495C11.2771 12.7497 11.4934 12.8394 11.6529 12.9991C11.8123 13.1587 11.9017 13.375 11.9016 13.6006C11.9014 13.8262 11.8116 14.0424 11.652 14.2018L9.25114 16.5979C9.03605 16.8122 8.82606 17 8.50045 17C8.21479 17 8.01926 16.8564 7.83052 16.677L5.34889 14.2018C5.18925 14.0424 5.09948 13.8262 5.09932 13.6006C5.09916 13.375 5.18863 13.1587 5.34804 12.9991C5.50745 12.8394 5.72375 12.7497 5.94935 12.7495C6.17496 12.7494 6.39138 12.8388 6.55102 12.9982L7.65028 14.0964V8.5C7.65028 8.27457 7.73985 8.05837 7.89929 7.89896C8.05873 7.73955 8.27497 7.65 8.50045 7.65ZM8.07537 1.92908e-08C10.4422 1.92908e-08 12.4622 1.4875 13.2495 3.5802C14.2982 3.8685 15.2274 4.48425 15.9015 5.33766C16.5757 6.19106 16.9595 7.23748 16.997 8.32429C17.0345 9.41111 16.7237 10.4815 16.11 11.3793C15.4962 12.2771 14.6117 12.9554 13.5853 13.3153C13.5209 12.7415 13.2638 12.2066 12.8558 11.798C12.4208 11.3624 11.8428 11.0988 11.2286 11.056L11.0509 11.05V8.5C11.0516 7.83623 10.7933 7.19837 10.331 6.72196C9.86877 6.24554 9.23891 5.96812 8.57529 5.94864C7.91168 5.92916 7.26663 6.16916 6.77719 6.61764C6.28775 7.06612 5.99252 7.68774 5.95421 8.3504L5.94996 8.5V11.05C5.6147 11.05 5.28273 11.116 4.97303 11.2444C4.66332 11.3727 4.38197 11.5608 4.14506 11.798C3.68844 12.2554 3.42255 12.8691 3.40116 13.515C2.51608 13.3342 1.71158 12.8762 1.10429 12.2076C0.496995 11.5389 0.118456 10.6943 0.0235416 9.79609C-0.0713731 8.89789 0.122268 7.99281 0.576398 7.21203C1.03053 6.43125 1.72155 5.81535 2.5493 5.4536C2.56808 4.00069 3.15857 2.61366 4.19288 1.59291C5.22719 0.572164 6.62205 -0.000121318 8.07537 1.92908e-08Z" fill="white" style="fill:white;fill-opacity:1;"/>
</svg>
