<svg width="53" height="26" viewBox="0 0 53 26" fill="none" xmlns="http://www.w3.org/2000/svg">
<g filter="url(#filter0_d_357_3441)">
<rect width="53" height="26" rx="13" fill="#FF2542" style="fill:#FF2542;fill:color(display-p3 1.0000 0.1451 0.2588);fill-opacity:1;"/>
</g>
<path d="M42.3603 10.1838C42.3633 10.2074 42.375 10.2132 42.4633 10.2118H43.5294C43.7055 10.2123 43.8795 10.1732 44.0383 10.0973C44.1972 10.0213 44.3369 9.9106 44.4472 9.77327C44.5574 9.63593 44.6352 9.47553 44.6749 9.30398C44.7146 9.13243 44.7152 8.95414 44.6765 8.78235C44.614 8.49501 44.4455 8.2418 44.2045 8.07332C43.9635 7.90484 43.6678 7.83349 43.3765 7.87353C43.0936 7.91048 42.834 8.04959 42.6466 8.26466C42.4591 8.47972 42.3568 8.7559 42.3588 9.04118C42.3588 9.18971 42.3559 10.0206 42.3603 10.1838ZM25.4353 17.2544C25.1368 17.2559 23.4456 17.2603 22.9574 17.2588C22.5746 17.2554 22.1946 17.1929 21.8309 17.0735C21.8223 17.071 21.8131 17.0717 21.8049 17.0755C21.7968 17.0793 21.7904 17.0859 21.7868 17.0941L20.7353 19.3721C20.7315 19.3803 20.7309 19.3897 20.7336 19.3984C20.7363 19.4071 20.7422 19.4145 20.75 19.4191C20.9132 19.5074 21.2441 19.6015 21.478 19.6015C22.4485 19.6162 23.4191 19.6044 24.3912 19.6015C24.4059 19.6015 24.4206 19.5926 24.425 19.5794L25.4721 17.3074C25.4749 17.3016 25.4762 17.2951 25.4758 17.2887C25.4754 17.2823 25.4733 17.2761 25.4697 17.2707C25.4661 17.2653 25.4612 17.261 25.4554 17.2582C25.4496 17.2553 25.4432 17.254 25.4368 17.2544H25.4353ZM10.1132 10.2294C10.0088 10.2294 10.0015 10.2324 10.0015 10.2441C9.99469 10.2831 9.98978 10.3223 9.98678 10.3618C9.94707 10.9456 9.93089 11.0897 9.64266 14.8618C9.62501 15.2147 9.59266 15.4338 9.44413 15.7544C9.40589 15.8382 9.3956 15.8162 9.44854 15.9191C9.51619 16.0544 10.45 18.1588 10.6059 18.4779C10.6177 18.5 10.6221 18.5074 10.6309 18.5074C10.6427 18.5074 10.6794 18.4691 10.7 18.4426C10.9162 18.1676 11.0941 17.8676 11.2456 17.5515C11.6956 16.6176 11.8927 15.6029 11.9603 15.0426C11.9809 14.8809 11.9912 14.7191 12.0044 14.5574L12.3044 10.7103L12.3368 10.2794C12.3412 10.2368 12.3368 10.2309 12.2927 10.2294H10.1132ZM20.7059 15.7544C20.5749 15.4751 20.5071 15.1703 20.5074 14.8618C20.5015 14.7382 20.4618 14.2882 20.1618 10.3618C20.1606 10.3212 20.1557 10.2808 20.1471 10.2412C20.1412 10.225 20.0706 10.2294 20.0353 10.2294H17.8588C17.8147 10.2309 17.8088 10.2368 17.8147 10.2794L17.8456 10.7103C17.9574 12.1544 18.0706 13.5985 18.1882 15.0426C18.2618 15.6309 18.4618 16.6382 18.9044 17.5515C19.0559 17.8676 19.2324 18.1676 19.4485 18.4426C19.4706 18.4691 19.503 18.5176 19.5191 18.5147C19.5485 18.5103 20.6103 16.1 20.7015 15.9191C20.7544 15.8162 20.7456 15.8382 20.7059 15.7544ZM26.3838 14.4118H25.1015C25.0703 14.4121 25.0396 14.4045 25.0122 14.3898C24.9847 14.3751 24.9614 14.3537 24.9444 14.3276C24.9274 14.3016 24.9173 14.2716 24.9149 14.2406C24.9125 14.2095 24.918 14.1784 24.9309 14.15L26.6632 10.2897C26.6657 10.2841 26.6667 10.278 26.6662 10.2719C26.6657 10.2658 26.6636 10.2599 26.6603 10.2548C26.6569 10.2497 26.6523 10.2455 26.647 10.2426C26.6416 10.2397 26.6355 10.2382 26.6294 10.2382L24.6912 10.2338C24.6546 10.234 24.6185 10.2249 24.5864 10.2074C24.5542 10.19 24.527 10.1647 24.5072 10.1339C24.4874 10.1031 24.4757 10.0678 24.4732 10.0313C24.4706 9.99479 24.4773 9.95823 24.4927 9.925L25.7809 7.05147C25.7833 7.04587 25.7844 7.03974 25.7838 7.03365C25.7833 7.02755 25.7813 7.02168 25.7779 7.01657C25.7746 7.01146 25.77 7.00727 25.7646 7.00438C25.7592 7.00148 25.7532 6.99998 25.7471 7H23.453C23.4382 7 23.4235 7.00882 23.4177 7.02206L22.0559 10.0632C21.9309 10.3118 21.5941 10.9956 21.4691 11.4426C21.4424 11.5337 21.4325 11.6289 21.4397 11.7235C21.4448 11.8371 21.4785 11.9476 21.5376 12.0448C21.5967 12.142 21.6794 12.2227 21.778 12.2794C21.9857 12.3923 22.218 12.4524 22.4544 12.4544H23.3221C23.3824 12.4544 22.3103 14.6338 22.0956 15.3544C22.0705 15.4363 22.0591 15.5218 22.0618 15.6074C22.0626 15.7259 22.0942 15.8421 22.1535 15.9447C22.2128 16.0473 22.2978 16.1328 22.4 16.1926C22.6206 16.3279 22.903 16.3691 23.0985 16.3691L25.5397 16.3676C25.5544 16.3676 25.5691 16.3588 25.5735 16.3456L26.4191 14.4632C26.4216 14.4575 26.4226 14.4513 26.4221 14.445C26.4215 14.4388 26.4193 14.4329 26.4158 14.4277C26.4122 14.4226 26.4075 14.4184 26.4019 14.4156C26.3963 14.4128 26.3901 14.4115 26.3838 14.4118ZM16.1927 7.15147H13.9706C13.9641 7.15106 13.9575 7.15202 13.9513 7.15429C13.9452 7.15656 13.9396 7.1601 13.9349 7.16467C13.9302 7.16924 13.9264 7.17474 13.924 7.18083C13.9215 7.18691 13.9204 7.19344 13.9206 7.2C13.9206 8.74118 13.9059 11.3103 13.9059 17.2426C13.9059 17.6662 13.5103 17.6279 13.4941 17.6279H12.4059C12.3471 17.6294 12.3412 17.6338 12.3471 17.6971C12.3485 17.7515 13.0309 19.2618 13.1632 19.5544C13.178 19.5838 13.2074 19.6029 13.2382 19.6029C13.4691 19.6074 14.3662 19.6162 14.6177 19.5824C14.8427 19.5529 15.0588 19.4941 15.2618 19.3882C15.703 19.1588 15.9824 18.7721 16.1368 18.2632C16.2132 18.0103 16.2471 17.7441 16.2471 17.4794C16.25 14.0529 16.2471 10.6265 16.2368 7.19853C16.2368 7.18605 16.2318 7.17408 16.223 7.16525C16.2142 7.15643 16.2022 7.15147 16.1897 7.15147H16.1927ZM33.5221 17.2926C33.5221 17.2721 33.5074 17.2618 33.4868 17.2603H31.3324C31.2618 17.2588 31.2603 17.2574 31.2588 17.1882V10.3353C31.2588 10.2294 31.2515 10.2324 31.3618 10.2324H32.6309C32.7485 10.2324 32.7412 10.2382 32.7412 10.1235V7.99853C32.7412 7.87794 32.75 7.88677 32.6235 7.88677H27.4765C27.3824 7.88677 27.3662 7.87794 27.3662 7.99412V10.1191C27.3662 10.2412 27.3574 10.2324 27.4838 10.2324H28.7397C28.85 10.2324 28.8427 10.2265 28.8427 10.3353V17.1353C28.8427 17.275 28.8544 17.2588 28.7177 17.2588C28.1735 17.2588 27.0853 17.2559 26.8 17.2588C26.7294 17.2603 26.7118 17.3029 26.7118 17.3029L25.6868 19.5368C25.6868 19.5368 25.6662 19.5735 25.675 19.5897C25.6838 19.6044 25.6941 19.6015 25.7603 19.6015C28.3309 19.6059 30.9 19.6044 33.4706 19.6044C33.5147 19.6029 33.5206 19.5956 33.5221 19.5559V17.2926ZM39.6647 12.2485C39.6647 12.2676 39.6544 12.2824 39.6353 12.2838C39.1265 12.2926 38.6177 12.2897 38.1103 12.2897C38.0897 12.2868 38.078 12.275 38.078 12.2544C38.0706 11.6162 38.0677 10.9765 38.0632 10.3382C38.0632 10.2324 38.0544 10.2338 38.1662 10.2353L39.2441 10.2309C39.3044 10.2309 39.3633 10.2338 39.4206 10.2529C39.5574 10.2897 39.6559 10.4103 39.6632 10.5529C39.6721 11.1868 39.6662 12.2485 39.6647 12.2485ZM43.5912 12.6074C43.1901 12.3977 42.7452 12.2859 42.2927 12.2809H42.028C41.9691 12.2794 41.9691 12.2765 41.9662 12.2221V10.6706C41.9662 10.4765 41.9559 10.2838 41.9294 10.0912C41.8944 9.82146 41.8185 9.55865 41.7044 9.31176C41.4959 8.86407 41.1461 8.49724 40.7088 8.26765C40.2564 8.02451 39.7519 7.89434 39.2383 7.88823C39.0133 7.88382 38.4044 7.88823 38.1794 7.88823C38.0765 7.88823 38.0794 7.89412 38.0794 7.79265V7.06765C38.0794 7.02206 38.0647 7.00735 38.0118 7.01029H35.7794C35.7794 7.01029 35.7559 7.01029 35.7456 7.02059C35.7368 7.02941 35.7338 7.03824 35.7338 7.05441V7.85735C35.7221 7.91029 35.65 7.87941 35.6132 7.88971H34.2162C34.1838 7.89265 34.175 7.90147 34.1721 7.93676V10.1147C34.1721 10.2471 34.1662 10.2353 34.2927 10.2353H35.6353C35.7559 10.2353 35.7412 10.4235 35.7412 10.4235V12.1118C35.7412 12.1118 35.7456 12.2838 35.653 12.2838H33.4735C33.3735 12.2838 33.3853 12.4044 33.3853 12.4044V14.5294C33.3853 14.5294 33.3706 14.6294 33.4794 14.6294H35.6221C35.7427 14.6294 35.7338 14.6206 35.7338 14.7456V19.4882C35.7338 19.6176 35.7235 19.6074 35.8544 19.6074H37.9574C38.0897 19.6074 38.078 19.6176 38.078 19.4897V14.6809C38.078 14.6382 38.0868 14.6294 38.1265 14.6294L41.5427 14.625C41.6868 14.625 41.8235 14.6544 41.9544 14.7147C42.0712 14.7663 42.1711 14.8498 42.2424 14.9558C42.3137 15.0617 42.3535 15.1856 42.3574 15.3132C42.3691 15.8941 42.3618 16.475 42.3618 17.0559C42.3618 17.4368 42.2044 17.5956 41.8765 17.5956H40.0853C40.0515 17.5985 40.0427 17.6074 40.0441 17.6441C40.3147 18.2868 40.5941 18.925 40.8824 19.5603C40.8876 19.5715 40.8959 19.5811 40.9063 19.5878C40.9167 19.5946 40.9288 19.5983 40.9412 19.5985C41.1912 19.6059 41.4412 19.6015 41.6912 19.6029C41.9118 19.6 42.4515 19.6088 42.6706 19.5882C42.8738 19.5721 43.0749 19.5351 43.2706 19.4779C44.1382 19.2132 44.7044 18.4515 44.7059 17.5471V14.6338C44.7059 14.4456 44.6912 14.2603 44.6559 14.075C44.6559 14.1897 44.6133 13.1324 43.5912 12.6074Z" fill="white" style="fill:white;fill-opacity:1;"/>
<defs>
<filter id="filter0_d_357_3441" x="-8.9" y="-8.9" width="70.8" height="43.8" filterUnits="userSpaceOnUse" color-interpolation-filters="sRGB">
<feFlood flood-opacity="0" result="BackgroundImageFix"/>
<feColorMatrix in="SourceAlpha" type="matrix" values="0 0 0 0 0 0 0 0 0 0 0 0 0 0 0 0 0 0 127 0" result="hardAlpha"/>
<feOffset/>
<feGaussianBlur stdDeviation="4.45"/>
<feComposite in2="hardAlpha" operator="out"/>
<feColorMatrix type="matrix" values="0 0 0 0 0.749155 0 0 0 0 0.138314 0 0 0 0 0.138314 0 0 0 1 0"/>
<feBlend mode="normal" in2="BackgroundImageFix" result="effect1_dropShadow_357_3441"/>
<feBlend mode="normal" in="SourceGraphic" in2="effect1_dropShadow_357_3441" result="shape"/>
</filter>
</defs>
</svg>
