<svg width="36" height="13" viewBox="0 0 36 13" fill="none" xmlns="http://www.w3.org/2000/svg">
<path d="M32.9482 3.18382C32.9511 3.20735 32.9629 3.21323 33.0511 3.21176H34.1173C34.2934 3.21231 34.4673 3.17317 34.6262 3.09725C34.7851 3.02134 34.9248 2.9106 35.035 2.77327C35.1453 2.63593 35.2231 2.47553 35.2628 2.30398C35.3025 2.13243 35.303 1.95414 35.2644 1.78235C35.2019 1.49501 35.0334 1.2418 34.7924 1.07332C34.5514 0.904842 34.2557 0.833492 33.9644 0.873529C33.6815 0.910483 33.4219 1.04959 33.2345 1.26466C33.047 1.47972 32.9447 1.7559 32.9467 2.04118C32.9467 2.18971 32.9438 3.02059 32.9482 3.18382ZM16.0232 10.2544C15.7247 10.2559 14.0335 10.2603 13.5453 10.2588C13.1625 10.2554 12.7825 10.1929 12.4188 10.0735C12.4102 10.071 12.401 10.0717 12.3928 10.0755C12.3847 10.0793 12.3782 10.0859 12.3747 10.0941L11.3232 12.3721C11.3194 12.3803 11.3188 12.3897 11.3215 12.3984C11.3242 12.4071 11.3301 12.4145 11.3379 12.4191C11.5011 12.5074 11.832 12.6015 12.0658 12.6015C13.0364 12.6162 14.007 12.6044 14.9791 12.6015C14.9938 12.6015 15.0085 12.5926 15.0129 12.5794L16.06 10.3074C16.0628 10.3016 16.0641 10.2951 16.0637 10.2887C16.0632 10.2823 16.0611 10.2761 16.0576 10.2707C16.054 10.2653 16.0491 10.261 16.0433 10.2582C16.0375 10.2553 16.0311 10.254 16.0247 10.2544H16.0232ZM0.701138 3.22941C0.596727 3.22941 0.589374 3.23235 0.589374 3.24412C0.582578 3.28307 0.57767 3.32233 0.574668 3.36176C0.534962 3.94559 0.518785 4.08971 0.23055 7.86176C0.212903 8.21471 0.18055 8.43382 0.0320207 8.75441C-0.00621457 8.83823 -0.0165087 8.81618 0.0364325 8.91912C0.10408 9.05441 1.0379 11.1588 1.19379 11.4779C1.20555 11.5 1.20996 11.5074 1.21879 11.5074C1.23055 11.5074 1.26731 11.4691 1.2879 11.4426C1.50408 11.1676 1.68202 10.8676 1.83349 10.5515C2.28349 9.61765 2.48055 8.60294 2.5482 8.04265C2.56879 7.88088 2.57908 7.71912 2.59231 7.55735L2.89232 3.71029L2.92467 3.27941C2.92908 3.23676 2.92467 3.23088 2.88055 3.22941H0.701138ZM11.2938 8.75441C11.1628 8.47507 11.095 8.17029 11.0953 7.86176C11.0894 7.73824 11.0497 7.28824 10.7497 3.36176C10.7485 3.3212 10.7436 3.28083 10.735 3.24118C10.7291 3.225 10.6585 3.22941 10.6232 3.22941H8.44673C8.40261 3.23088 8.39673 3.23676 8.40261 3.27941L8.43349 3.71029C8.54526 5.15441 8.65849 6.59853 8.77614 8.04265C8.84967 8.63088 9.04967 9.63824 9.49232 10.5515C9.64379 10.8676 9.82026 11.1676 10.0364 11.4426C10.0585 11.4691 10.0908 11.5176 10.107 11.5147C10.1364 11.5103 11.1982 9.1 11.2894 8.91912C11.3423 8.81618 11.3335 8.83823 11.2938 8.75441ZM16.9717 7.41176H15.6894C15.6582 7.41207 15.6275 7.40452 15.6001 7.38982C15.5726 7.37512 15.5493 7.35373 15.5323 7.32765C15.5153 7.30156 15.5052 7.27161 15.5028 7.24056C15.5004 7.20951 15.5059 7.17836 15.5188 7.15L17.2511 3.28971C17.2536 3.2841 17.2546 3.27797 17.2541 3.27188C17.2536 3.26579 17.2515 3.25992 17.2482 3.25481C17.2448 3.2497 17.2402 3.24551 17.2348 3.24261C17.2295 3.23972 17.2234 3.23821 17.2173 3.23824L15.2791 3.23382C15.2425 3.23398 15.2064 3.2249 15.1743 3.20743C15.1421 3.18995 15.1149 3.16466 15.0951 3.13387C15.0753 3.10309 15.0636 3.06781 15.0611 3.0313C15.0585 2.99479 15.0652 2.95823 15.0806 2.925L16.3688 0.0514706C16.3712 0.0458657 16.3722 0.0397394 16.3717 0.033646C16.3712 0.0275526 16.3692 0.0216845 16.3658 0.0165738C16.3625 0.0114631 16.3579 0.00727136 16.3525 0.00437731C16.3471 0.00148326 16.3411 -2.11039e-05 16.335 2.23649e-07H14.0408C14.0261 2.23649e-07 14.0114 0.00882356 14.0056 0.0220589L12.6438 3.06324C12.5188 3.31176 12.182 3.99559 12.057 4.44265C12.0303 4.53373 12.0204 4.62889 12.0276 4.72353C12.0327 4.83715 12.0664 4.94765 12.1255 5.04481C12.1846 5.14197 12.2673 5.22266 12.3658 5.27941C12.5736 5.3923 12.8059 5.45239 13.0423 5.45441H13.91C13.9703 5.45441 12.8982 7.63382 12.6835 8.35441C12.6584 8.4363 12.647 8.52175 12.6497 8.60735C12.6505 8.72586 12.6821 8.84211 12.7414 8.94472C12.8007 9.04732 12.8856 9.13276 12.9879 9.19265C13.2085 9.32794 13.4908 9.36912 13.6864 9.36912L16.1276 9.36765C16.1423 9.36765 16.157 9.35882 16.1614 9.34559L17.007 7.46323C17.0095 7.45751 17.0105 7.45125 17.0099 7.44503C17.0094 7.43882 17.0072 7.43285 17.0037 7.4277C17.0001 7.42255 16.9953 7.41839 16.9898 7.4156C16.9842 7.41281 16.978 7.41149 16.9717 7.41176ZM6.78055 0.15147H4.55849C4.55194 0.151057 4.54538 0.152017 4.53923 0.15429C4.53307 0.156563 4.52746 0.160097 4.52275 0.164667C4.51804 0.169237 4.51434 0.174741 4.51188 0.180826C4.50943 0.186911 4.50827 0.193442 4.50849 0.2C4.50849 1.74118 4.49379 4.31029 4.49379 10.2426C4.49379 10.6662 4.0982 10.6279 4.08202 10.6279H2.99379C2.93496 10.6294 2.92908 10.6338 2.93496 10.6971C2.93643 10.7515 3.61879 12.2618 3.75114 12.5544C3.76584 12.5838 3.79526 12.6029 3.82614 12.6029C4.05702 12.6074 4.95408 12.6162 5.20555 12.5824C5.43055 12.5529 5.64673 12.4941 5.84967 12.3882C6.29084 12.1588 6.57026 11.7721 6.72467 11.2632C6.80114 11.0103 6.83496 10.7441 6.83496 10.4794C6.8379 7.05294 6.83496 3.62647 6.82467 0.198529C6.82467 0.186048 6.81971 0.174079 6.81088 0.165254C6.80206 0.156429 6.79009 0.15147 6.77761 0.15147H6.78055ZM24.11 10.2926C24.11 10.2721 24.0953 10.2618 24.0747 10.2603H21.9203C21.8497 10.2588 21.8482 10.2574 21.8467 10.1882V3.33529C21.8467 3.22941 21.8394 3.23235 21.9497 3.23235H23.2188C23.3364 3.23235 23.3291 3.23824 23.3291 3.12353V0.998529C23.3291 0.877941 23.3379 0.886765 23.2114 0.886765H18.0644C17.9703 0.886765 17.9541 0.877942 17.9541 0.994118V3.11912C17.9541 3.24118 17.9453 3.23235 18.0717 3.23235H19.3276C19.4379 3.23235 19.4306 3.22647 19.4306 3.33529V10.1353C19.4306 10.275 19.4423 10.2588 19.3056 10.2588C18.7614 10.2588 17.6732 10.2559 17.3879 10.2588C17.3173 10.2603 17.2997 10.3029 17.2997 10.3029L16.2747 12.5368C16.2747 12.5368 16.2541 12.5735 16.2629 12.5897C16.2717 12.6044 16.282 12.6015 16.3482 12.6015C18.9188 12.6059 21.4879 12.6044 24.0585 12.6044C24.1026 12.6029 24.1085 12.5956 24.11 12.5559V10.2926ZM30.2526 5.24853C30.2526 5.26765 30.2423 5.28235 30.2232 5.28382C29.7144 5.29265 29.2056 5.28971 28.6982 5.28971C28.6776 5.28676 28.6658 5.275 28.6658 5.25441C28.6585 4.61618 28.6556 3.97647 28.6511 3.33824C28.6511 3.23235 28.6423 3.23382 28.7541 3.23529L29.832 3.23088C29.8923 3.23088 29.9511 3.23382 30.0085 3.25294C30.1453 3.28971 30.2438 3.41029 30.2511 3.55294C30.26 4.18676 30.2541 5.24853 30.2526 5.24853ZM34.1791 5.60735C33.778 5.39775 33.3331 5.28588 32.8806 5.28088H32.6158C32.557 5.27941 32.557 5.27647 32.5541 5.22206V3.67059C32.5541 3.47647 32.5438 3.28382 32.5173 3.09118C32.4823 2.82146 32.4064 2.55865 32.2923 2.31176C32.0838 1.86407 31.734 1.49724 31.2967 1.26765C30.8443 1.02451 30.3398 0.894342 29.8261 0.888235C29.6011 0.883823 28.9923 0.888235 28.7673 0.888235C28.6644 0.888235 28.6673 0.894118 28.6673 0.792647V0.0676473C28.6673 0.0220591 28.6526 0.00735312 28.5997 0.0102943H26.3673C26.3673 0.0102943 26.3438 0.0102943 26.3335 0.0205884C26.3247 0.0294119 26.3217 0.0382351 26.3217 0.0544116V0.857353C26.31 0.910294 26.2379 0.879412 26.2011 0.889706H24.8041C24.7717 0.892647 24.7629 0.90147 24.76 0.936764V3.11471C24.76 3.24706 24.7541 3.23529 24.8806 3.23529H26.2232C26.3438 3.23529 26.3291 3.42353 26.3291 3.42353V5.11176C26.3291 5.11176 26.3335 5.28382 26.2408 5.28382H24.0614C23.9614 5.28382 23.9732 5.40441 23.9732 5.40441V7.52941C23.9732 7.52941 23.9585 7.62941 24.0673 7.62941H26.21C26.3306 7.62941 26.3217 7.62059 26.3217 7.74559V12.4882C26.3217 12.6176 26.3114 12.6074 26.4423 12.6074H28.5453C28.6776 12.6074 28.6658 12.6176 28.6658 12.4897V7.68088C28.6658 7.63824 28.6747 7.62941 28.7144 7.62941L32.1306 7.625C32.2747 7.625 32.4114 7.65441 32.5423 7.71471C32.6591 7.76628 32.7589 7.84985 32.8302 7.95576C32.9016 8.06168 32.9414 8.18561 32.9453 8.31323C32.957 8.89412 32.9497 9.475 32.9497 10.0559C32.9497 10.4368 32.7923 10.5956 32.4644 10.5956H30.6732C30.6394 10.5985 30.6306 10.6074 30.632 10.6441C30.9026 11.2868 31.182 11.925 31.4703 12.5603C31.4755 12.5715 31.4838 12.5811 31.4942 12.5878C31.5046 12.5946 31.5167 12.5983 31.5291 12.5985C31.7791 12.6059 32.0291 12.6015 32.2791 12.6029C32.4997 12.6 33.0394 12.6088 33.2585 12.5882C33.4617 12.5721 33.6628 12.5351 33.8585 12.4779C34.7261 12.2132 35.2923 11.4515 35.2938 10.5471V7.63382C35.2938 7.44559 35.2791 7.26029 35.2438 7.075C35.2438 7.1897 35.2011 6.13235 34.1791 5.60735Z" fill="white" style="fill:white;fill-opacity:1;"/>
</svg>
