<svg width="36" height="33" viewBox="0 0 36 33" fill="none" xmlns="http://www.w3.org/2000/svg">
<g filter="url(#filter0_d_351_3283)">
<path d="M14.4486 1.99585C15.9893 -0.665286 19.8313 -0.665284 21.372 1.99586L35.2763 26.0124C36.8202 28.6791 34.896 32.0166 31.8146 32.0166H4.00598C0.924655 32.0166 -0.999581 28.6791 0.544277 26.0124L14.4486 1.99585Z" fill="#FFEC20" style="fill:#FFEC20;fill:color(display-p3 1.0000 0.9270 0.1237);fill-opacity:1;"/>
<path d="M14.4487 1.99583C15.9894 -0.665255 19.8309 -0.665295 21.3715 1.99583L35.2758 26.0124C36.8196 28.6791 34.8952 32.0163 31.8139 32.0163V30.0163C33.3545 30.0163 34.3171 28.3477 33.5454 27.0144L19.6411 2.99778C18.8707 1.66721 16.9495 1.66721 16.1791 2.99778L2.27485 27.0144C1.50302 28.3476 2.46484 30.0161 4.00532 30.0163V32.0163C1.0205 32.0161 -0.878027 28.8844 0.409616 26.2644L0.544381 26.0124L14.4487 1.99583ZM31.8139 30.0163V32.0163H4.00532V30.0163H31.8139Z" fill="#0F172A" fill-opacity="0.8" style="fill:#0F172A;fill:color(display-p3 0.0588 0.0902 0.1647);fill-opacity:0.8;"/>
<path d="M16.9492 13.0666C16.9492 12.0202 17.7975 11.1719 18.844 11.1719C19.8904 11.1719 20.7387 12.0202 20.7387 13.0666V18.7508C20.7387 19.7973 19.8904 20.6456 18.844 20.6456C17.7975 20.6456 16.9492 19.7973 16.9492 18.7508V13.0666Z" fill="#0F172A" fill-opacity="0.8" style="fill:#0F172A;fill:color(display-p3 0.0588 0.0902 0.1647);fill-opacity:0.8;"/>
<path d="M16.9492 24.435C16.9492 23.3886 17.7975 22.5403 18.844 22.5403C19.8904 22.5403 20.7387 23.3886 20.7387 24.435C20.7387 25.4815 19.8904 26.3298 18.844 26.3298C17.7975 26.3298 16.9492 25.4815 16.9492 24.435Z" fill="#0F172A" fill-opacity="0.8" style="fill:#0F172A;fill:color(display-p3 0.0588 0.0902 0.1647);fill-opacity:0.8;"/>
</g>
<defs>
<filter id="filter0_d_351_3283" x="-8" y="-8" width="51.8203" height="48.0156" filterUnits="userSpaceOnUse" color-interpolation-filters="sRGB">
<feFlood flood-opacity="0" result="BackgroundImageFix"/>
<feColorMatrix in="SourceAlpha" type="matrix" values="0 0 0 0 0 0 0 0 0 0 0 0 0 0 0 0 0 0 127 0" result="hardAlpha"/>
<feOffset/>
<feGaussianBlur stdDeviation="4"/>
<feComposite in2="hardAlpha" operator="out"/>
<feColorMatrix type="matrix" values="0 0 0 0 1 0 0 0 0 0.92549 0 0 0 0 0.12549 0 0 0 0.5 0"/>
<feBlend mode="normal" in2="BackgroundImageFix" result="effect1_dropShadow_351_3283"/>
<feBlend mode="normal" in="SourceGraphic" in2="effect1_dropShadow_351_3283" result="shape"/>
</filter>
</defs>
</svg>
